<?xml version="1.0" encoding="UTF-8"?>
<svg width="1200pt" height="1200pt" version="1.1" viewBox="0 0 1200 1200" xmlns="http://www.w3.org/2000/svg">
 <g transform="rotate(90, 600, 600)">
  <path d="m447.66 630.47v-60.938c0-3.75-1.4062-7.4062-3.8906-10.172l-137.11-152.34c-2.9062-3.2344-6.9844-5.0625-11.344-5.0625h-167.58c-8.3906 0-15.234 6.7969-15.234 15.234v60.938c0 3.75 1.4062 7.4062 3.8906 10.172l100.5 111.7-100.5 111.7c-2.5312 2.8125-3.8906 6.4219-3.8906 10.172v60.938c0 8.4375 6.8438 15.234 15.234 15.234h167.58c4.3125 0 8.4375-1.8281 11.344-5.0625l137.11-152.34c2.5312-2.8125 3.8906-6.4219 3.8906-10.172zm-304.69-158.21v-15.375l101.39 112.64-6.9375 7.6875zm133.22 107.44c5.2031-5.7656 5.2031-14.578 0-20.391l-114.23-126.94h126.56l123.37 137.11-123.37 137.11h-126.61l114.23-126.94zm12.328 187.87h-145.55v-30.469h152.34c4.3125 0 8.4375-1.8281 11.344-5.0625l110.53-122.86v15.422zm479.06-137.11v-60.938c0-3.75-1.4062-7.4062-3.8906-10.172l-137.11-152.34c-2.9062-3.2344-6.9844-5.0625-11.344-5.0625h-167.58c-8.3906 0-15.234 6.7969-15.234 15.234v60.938c0 3.75 1.4062 7.4062 3.8906 10.172l100.5 111.7-100.5 111.7c-2.5312 2.8125-3.8906 6.4219-3.8906 10.172v60.938c0 8.4375 6.8438 15.234 15.234 15.234h167.58c4.3125 0 8.4375-1.8281 11.344-5.0625l137.11-152.34c2.5312-2.8125 3.8906-6.4219 3.8906-10.172zm-304.69-158.21v-15.375l101.39 112.64-6.9375 7.6875zm133.22 107.44c5.2031-5.7656 5.2031-14.578 0-20.391l-114.23-126.94h126.56l123.37 137.11-123.37 137.11h-126.61l114.23-126.94zm12.328 187.87h-145.55v-30.469h152.34c4.3125 0 8.4375-1.8281 11.344-5.0625l110.53-122.86v15.422zm475.18-208.22-137.11-152.34c-2.9062-3.2344-6.9844-5.0625-11.344-5.0625h-167.58c-8.3906 0-15.234 6.7969-15.234 15.234v60.938c0 3.75 1.4062 7.4062 3.8906 10.172l100.5 111.7-100.5 111.7c-2.5312 2.8125-3.8906 6.4219-3.8906 10.172v60.938c0 8.4375 6.8438 15.234 15.234 15.234h167.58c4.3125 0 8.4375-1.8281 11.344-5.0625l137.11-152.34c2.5312-2.8125 3.8906-6.4219 3.8906-10.172v-60.938c0-3.75-1.4062-7.4062-3.8906-10.172zm-300.79-87.094v-15.375l101.39 112.64-6.9375 7.6875zm133.22 107.44c5.2031-5.7656 5.2031-14.578 0-20.391l-114.23-126.94h126.56l123.37 137.11-123.37 137.11h-126.61l114.23-126.94zm12.328 187.87h-145.55v-30.469h152.34c4.3125 0 8.4375-1.8281 11.344-5.0625l110.53-122.86v15.422z"/>
 </g>
</svg>
