<?xml version="1.0" encoding="UTF-8"?>
<svg version="1.1" viewBox="0 0 2108 1917" xmlns="http://www.w3.org/2000/svg">
<path transform="translate(1025.6 335.74)" d="m0 0c5.0468 0.0075434 10.094 0.0048135 15.14-0.0036054 34.473-0.05617 68.855 0.31365 103.28 2.2607v2h20v1c5.28 0.33 10.56 0.66 16 1v2h15v2c0.46342-0.0058008 0.46342-0.0058008 2.8086-0.035156 1.1975-0.0090234 2.3951-0.018047 3.6289-0.027344 1.195-0.011602 2.3899-0.023203 3.6211-0.035156 2.9414 0.097656 2.9414 0.097656 3.9414 1.0977 2.0159 0.23428 4.0385 0.41336 6.0625 0.5625 1.1047 0.083789 2.2095 0.16758 3.3477 0.25391 0.85465 0.060586 1.7093 0.12117 2.5898 0.18359v2h12v2c0.39123-0.0058008 0.39123-0.0058008 2.3711-0.035156 1.0119-0.0090234 2.0238-0.018047 3.0664-0.027344 1.0093-0.011602 2.0187-0.023203 3.0586-0.035156 2.5039 0.097656 2.5039 0.097656 3.5039 1.0977 1.474 0.20768 2.9549 0.36716 4.4375 0.5 4.3433 0.39041 4.3433 0.39041 6.5625 1.5 2.3308 0.30792 4.6624 0.50895 7.0039 0.71875 1.9961 0.28125 1.9961 0.28125 2.9961 1.2812 2.6443 0.54853 5.277 1.0443 7.9375 1.5 0.7682 0.13382 1.5364 0.26764 2.3279 0.40552 5.5664 0.94813 11.103 1.6476 16.735 2.0945v1c2.97 0.33 5.94 0.66 9 1v1c1.32 0.165 1.32 0.165 8 1v2h8v2h8v2c0.56719-0.010312 0.56719-0.010312 3.4375-0.0625 3.5625 0.0625 3.5625 0.0625 4.5625 1.0625 2.3282 0.36761 4.6618 0.70242 7 1v2c0.99-0.061875 1.98-0.12375 3-0.1875 3.6201-0.0072042 6.3348 1.0689 9.6992 2.3879 4.1639 1.447 8.4758 2.1793 12.801 2.9871 0.91781 0.17725 1.8356 0.35449 2.7812 0.53711 2.2385 0.43137 4.4779 0.85636 6.7188 1.2754v2h7v1c1.98 0.33 3.96 0.66 6 1v2h6v2c0.84562-0.04125 1.6912-0.0825 2.5625-0.125 3.8596 0.14035 6.7744 0.9528 10.438 2.125v2h6v2c0.68062-0.061875 1.3612-0.12375 2.0625-0.1875 3.0051 0.19182 5.0193 1.0145 7.7266 2.2617 7.738 3.2401 16.009 5.2576 24.211 6.9258v2h5v2h6v2h5v2h5v2h5v2c0.72187-0.046406 1.4437-0.092812 2.1875-0.14062 3.1817 0.15908 4.9828 0.95854 7.8125 2.3906 5.2028 2.4852 10.428 4.2414 15.957 5.8555 4.5166 1.3277 8.8876 2.657 13.043 4.8945v2h5v2h4v2h5v2h4v2c0.7425 0.14437 1.485 0.28875 2.25 0.4375 2.2703 0.46437 4.5076 0.98114 6.75 1.5625v2c0.6948 0.12246 1.3896 0.24492 2.1055 0.37109 3.1642 0.68749 6.1426 1.6475 9.207 2.6914 1.0686 0.36223 2.1373 0.72445 3.2383 1.0977 0.80824 0.27715 1.6165 0.5543 2.4492 0.83984v2h4v2h4v2h4v2c0.73501 0.12528 1.47 0.25056 2.2273 0.37964 2.6337 0.58926 4.7139 1.3792 7.136 2.5461 0.80502 0.38479 1.61 0.76957 2.4395 1.166 0.82822 0.40283 1.6564 0.80566 2.5098 1.2207 0.40831 0.19562 0.40831 0.19562 2.4746 1.1855 4.4951 2.1598 8.965 4.3654 13.413 6.6208 2.8852 1.4123 5.8353 2.6458 8.8 3.8811v2h4v2h4v2h3v2h4v2c0.29906 0.072187 0.29906 0.072187 1.8125 0.4375 1.749 0.44974 3.4743 0.99142 5.1875 1.5625v2c0.52078 0.10184 1.0416 0.20367 1.5781 0.30859 3.23 0.92212 6.1333 2.3258 9.1719 3.7539 1.1705 0.54785 2.3409 1.0957 3.5469 1.6602 0.89203 0.42152 1.7841 0.84305 2.7031 1.2773v2h3v2c0.29906 0.072187 0.29906 0.072187 1.8125 0.4375 1.749 0.44974 3.4743 0.99142 5.1875 1.5625v2h3v2c0.53625 0.10312 1.0725 0.20625 1.625 0.3125 3 0.86843 5.613 2.2437 8.375 3.6875v2c0.57234 0.12246 1.1447 0.24492 1.7344 0.37109 2.3652 0.65653 4.3377 1.5661 6.5156 2.6914 0.70641 0.36223 1.4128 0.72445 2.1406 1.0977 0.53109 0.27715 1.0622 0.5543 1.6094 0.83984v2h3v2h3v2h2c0.35922 21.407-0.67887 42.642-2 64h-2v18h-2c0.011602 1.0712 0.023203 2.1424 0.035156 3.2461 0.0093767 1.3971 0.018477 2.7943 0.027344 4.1914 0.0083789 0.70705 0.016758 1.4141 0.025391 2.1426 0.0086453 1.8069-0.035691 3.6138-0.087891 5.4199-0.33 0.33-0.66 0.66-1 1-0.20969 2.3299-0.36815 4.6644-0.5 7-0.38889 6.8889-0.38889 6.8889-1.5 8-0.23482 2.1829-0.41363 4.372-0.5625 6.5625-0.041895 0.59877-0.041895 0.59877-0.25391 3.6289-0.030293 0.46342-0.030293 0.46342-0.18359 2.8086h-2c0.011602 0.92684 0.023203 1.8537 0.035156 2.8086 0.0045117 0.59877 0.0045117 0.59877 0.027344 3.6289 0.011602 1.195 0.023203 2.3899 0.035156 3.6211-0.097656 2.9414-0.097656 2.9414-1.0977 3.9414-0.20896 1.8081-0.3678 3.6222-0.5 5.4375-0.39008 5.3427-0.39008 5.3427-1.5 7.5625-0.20222 1.6627-0.36411 3.3305-0.5 5-0.38889 4.7778-0.38889 4.7778-1.5 7-0.20093 1.4958-0.36336 2.997-0.5 4.5-0.38889 4.2778-0.38889 4.2778-1.5 6.5-0.20222 1.6627-0.36411 3.3305-0.5 5-0.38889 4.7778-0.38889 4.7778-1.5 7-0.20535 1.3606-0.36591 2.7282-0.5 4.0977-0.0825 0.80115-0.165 1.6023-0.25 2.4277-0.16705 1.6953-0.33371 3.3906-0.5 5.0859-0.64847 6.2871-0.64847 6.2871-1.75 7.3887-0.23193 1.5147-0.41215 3.0375-0.5625 4.5625-0.041895 0.41314-0.041895 0.41314-0.25391 2.5039l-0.18359 1.9336h-2v10h-2v9h-2v10h-2c0.020625 1.2994 0.04125 2.5988 0.0625 3.9375 0.021495 1.3542 0.008982 2.7101-0.0625 4.0625-0.33 0.33-0.66 0.66-1 1-0.23075 1.3475-0.41153 2.7038-0.5625 4.0625-0.14438 1.2994-0.28875 2.5988-0.4375 3.9375h-2c0.020625 1.2994 0.04125 2.5988 0.0625 3.9375 0.021495 1.3542 0.008982 2.7101-0.0625 4.0625-0.33 0.33-0.66 0.66-1 1l-0.5 3.5c-0.5 3.5-0.5 3.5-1.5 4.5-0.23075 1.3475-0.41153 2.7038-0.5625 4.0625-0.14438 1.2994-0.28875 2.5988-0.4375 3.9375h-2v8h-2c-0.030293 0.49951-0.030293 0.49951-0.18359 3.0273-0.041895 0.64518-0.041895 0.64518-0.25391 3.9102-0.081211 1.2878-0.16242 2.5755-0.24609 3.9023-0.31641 3.1602-0.31641 3.1602-1.3164 4.1602-0.36761 2.3282-0.70242 4.6618-1 7h-2v7h-2v7h-2c0.061875 1.0106 0.12375 2.0212 0.1875 3.0625-0.20676 4.342-1.4287 6.9979-3.1875 10.938-0.40541 2.3219-0.76073 4.6552-1 7h-2v6h-2c0.048984 0.84047 0.097969 1.6809 0.14844 2.5469-0.17079 3.973-1.1717 6.9684-2.5234 10.703-1.8137 5.1534-3.2773 10.202-4.2227 15.586-0.58178 3.1292-1.4762 6.121-2.4023 9.1641h-2v6h-2v6h-2v5h-2v6h-2v6h-2v6h-2v5h-2c0.061875 0.66 0.12375 1.32 0.1875 2-0.21001 3.3602-1.1429 5.7684-2.3867 8.8633-1.2419 3.3137-2.0011 6.6921-2.8008 10.137h-2v5h-2v5h-2v6h-2v4h-2v5h-2c0.020625 0.36094 0.020625 0.36094 0.125 2.1875-0.13421 3.0198-0.87671 5.0819-2.125 7.8125h-2l0.25 1.9375c-0.30953 3.7918-1.6817 6.4918-3.293 9.9023-1.0456 2.36-1.6268 4.6006-1.957 7.1602h-2v4h-2c0.020625 0.37125 0.020625 0.37125 0.125 2.25-0.12898 2.8376-0.69551 4.3377-2.125 6.75h-2c0.020625 0.36094 0.020625 0.36094 0.125 2.1875-0.13421 3.0198-0.87671 5.0819-2.125 7.8125h-2v4h-2c-0.14438 0.92812-0.28875 1.8563-0.4375 2.8125-0.5625 3.1875-0.5625 3.1875-1.5625 6.1875h-2v4h-2c-0.12375 0.86625-0.2475 1.7325-0.375 2.625-0.60558 3.2701-1.5081 6.2476-2.625 9.375h-2v5h-2v4h-2v4h-2v4h-2v4h-2v4h-2c-0.066064 0.29358-0.066064 0.29358-0.40039 1.7793-1.1123 4.1196-3.2193 7.8999-5.0723 11.732-1.4991 3.1424-2.7636 6.0942-3.5273 9.4883h-2v3h-2v4h-2v4h-2v4h-2v4h-2c-0.14438 0.59812-0.28875 1.1962-0.4375 1.8125-0.44974 1.749-0.99142 3.4743-1.5625 5.1875h-2v4h-2c-0.050918 0.26039-0.050918 0.26039-0.30859 1.5781-0.92212 3.23-2.3258 6.1333-3.7539 9.1719-0.54785 1.1705-1.0957 2.3409-1.6602 3.5469-0.42152 0.89203-0.84305 1.7841-1.2773 2.7031h-2c-0.14438 0.61875-0.28875 1.2375-0.4375 1.875-0.5625 2.125-0.5625 2.125-1.5625 4.125h-2v4h-2v4h-2c-0.11215 0.56203-0.2243 1.1241-0.33984 1.7031-0.75073 2.612-1.8718 4.6916-3.2227 7.0469-0.45504 0.79922-0.91008 1.5984-1.3789 2.4219-0.34934 0.60328-0.69867 1.2066-1.0586 1.8281h-2c-0.19336 0.61488-0.38672 1.2298-0.58594 1.8633-0.26039 0.80824-0.52078 1.6165-0.78906 2.4492-0.25523 0.80051-0.51047 1.601-0.77344 2.4258-0.85156 2.2617-0.85156 2.2617-2.8516 5.2617h-2c-0.14438 0.59812-0.28875 1.1962-0.4375 1.8125-0.44974 1.749-0.99142 3.4743-1.5625 5.1875h-2c-0.23203 0.79406-0.46406 1.5881-0.70312 2.4062-8.0808 22.393-23.141 43.212-37.821 61.721-1.3948 1.77-2.7646 3.5558-4.124 5.353-5.0257 6.6431-10.267 13.055-15.684 19.379-2.5301 2.9598-4.9769 5.9819-7.418 9.0156-3.0158 3.708-6.1383 7.1356-9.5742 10.453-1.8018 1.7976-3.4556 3.6785-5.1133 5.6094-2.9686 3.4467-6.1033 6.6536-9.375 9.8125-1.8551 1.9081-3.5835 3.8539-5.3164 5.8711-4.3785 5.0389-9.0795 9.7336-13.809 14.441-0.85529 0.85916-1.7106 1.7183-2.5918 2.6035-4.447 4.4402-8.9642 8.7175-13.731 12.812-2.3615 2.0653-4.5521 4.2747-6.74 6.5217-3.4691 3.5059-7.0028 6.828-10.75 10.031-2.339 2.0467-4.611 4.1531-6.8821 6.2744-5.4055 5.0482-10.918 9.8503-16.688 14.483-2.8122 2.3203-5.4977 4.7416-8.1797 7.2109-4.8093 4.4165-9.7771 8.5695-14.858 12.667-2.5836 2.0972-5.145 4.221-7.7095 6.3416-11.963 9.8871-24.036 19.602-36.39 28.997-4.418 3.3611-8.8077 6.7551-13.178 10.178-15.077 11.803-30.583 23.014-46.122 34.198-2.2733 1.6398-4.5418 3.286-6.8091 4.9341-8.3566 6.0693-16.767 12.041-25.299 17.86-3.1463 2.1466-6.2854 4.3033-9.4208 6.4657-9.7663 6.7325-19.582 13.391-29.413 20.028-1.8677 1.2618-3.7346 2.5248-5.6006 3.7891-10.845 7.3471-21.729 14.586-32.899 21.429-1.3053 0.80582-2.6049 1.6208-3.9009 2.4413-0.35162 0.22259-0.35162 0.22259-2.131 1.349-0.31895 0.20316-0.31895 0.20316-1.9331 1.2313-2.724 1.6175-5.5582 2.7383-8.5228 3.8398-1.0764 0.40734-2.1527 0.81469-3.2617 1.2344-5.7592 1.9173-11.087 2.2562-17.113 2.3281-0.39155 0.014502-0.39155 0.014502-2.373 0.087891-11.405 0.12005-20.67-4.5487-29.939-10.775-1.9151-1.253-3.8305-2.5056-5.7461-3.7578-0.48461-0.31985-0.48461-0.31985-2.937-1.9385-3.8303-2.5111-7.6989-4.9589-11.571-7.4048-8.9739-5.6685-17.864-11.446-26.666-17.378-2.2113-1.4862-4.4325-2.9573-6.6533-4.4292-18.774-12.46-37.406-25.143-55.814-38.138-2.2008-1.553-4.4044-3.1017-6.6089-4.6494-23.057-16.205-45.756-32.883-68.13-50.018-2.3682-1.8124-4.7394-3.6209-7.1118-5.4277-14.054-10.709-27.874-21.645-41.484-32.914-2.5187-2.0791-5.0542-4.137-7.5898-6.1953-5.3112-4.3404-10.516-8.7992-15.711-13.277-2.3494-2.0251-4.7083-4.0379-7.0781-6.0391-6.9538-5.8855-13.701-11.944-20.331-18.192-3.0964-2.9172-6.2052-5.7922-9.4426-8.554-7.0964-6.1223-13.673-12.903-19.75-20.031-2.1691-2.4741-4.4086-4.8704-6.6611-7.2683-6.0664-6.4613-11.837-13.058-17.339-20.013-0.99829-1.2412-1.997-2.4821-2.9961-3.7227-1.0227-1.2795-2.0449-2.5594-3.0664-3.8398-0.49-0.60844-0.98001-1.2169-1.4849-1.8438-3.4526-4.3644-3.4526-4.3644-3.4526-6.5938h-2c-4-5.4118-4-5.4118-4-8-0.66-0.33-1.32-0.66-2-1-3-4.5-3-4.5-3-7h-2c-0.66-1.98-1.32-3.96-2-6h-2v-3h-2c-4-5.4118-4-5.4118-4-8h-2c-1.7266-2.5547-1.7266-2.5547-3.625-5.875-0.31582-0.54527-0.31582-0.54527-1.9141-3.3047-1.4609-2.8203-1.4609-2.8203-1.4609-4.8203h-2c-0.66-1.65-1.32-3.3-2-5h-2c-0.33-0.99-0.33-0.99-2-6h-2v-4h-2v-2h-2v-4h-2c-3-4.3846-3-4.3846-3-7h-2c-0.67155-1.2891-1.3371-2.5814-2-3.875-0.37125-0.7193-0.7425-1.4386-1.125-2.1797-0.875-1.9453-0.875-1.9453-0.875-3.9453h-2c-0.33-0.99-0.33-0.99-2-6h-2c-1.4606-2.6474-2-3.8945-2-7h-2c-2-3-2-3-2-6h-2v-4h-2c-1.7266-2.5195-1.7266-2.5195-3.625-5.8125-0.63164-1.0789-1.2633-2.1579-1.9141-3.2695-1.4609-2.918-1.4609-2.918-1.4609-5.918h-2v-4h-2c-0.33-0.99-0.33-0.99-2-6h-2v-4h-2c-1.4606-2.6474-2-3.8945-2-7h-2v-4h-2c-0.84069-1.6003-1.6723-3.2054-2.5-4.8125-0.46406-0.89332-0.92812-1.7866-1.4062-2.707-1.0938-2.4805-1.0938-2.4805-1.0938-5.4805h-2v-4h-2v-4h-2c-4-6.625-4-6.625-4-10h-2v-4h-2c-0.84267-1.7455-1.6738-3.4966-2.5-5.25-0.46406-0.97453-0.92812-1.9491-1.4062-2.9531-1.0938-2.7969-1.0938-2.7969-1.0938-6.7969h-2v-4h-2c-1.2942-2.5613-2.5854-5.1239-3.875-7.6875-0.3648-0.72123-0.72961-1.4425-1.1055-2.1855-5.0195-9.9934-5.0195-9.9934-5.0195-15.127h-2c-9-17.214-9-17.214-9-24h-2v-4h-2v-4h-2c-1.3163-3.6197-2-6.0957-2-10h-2c-1.8578-3.135-2.2014-5.3747-2-9h-2v-4h-2c-1.6036-3.5078-2.2204-6.1435-2-10h-2c-0.12375-0.55688-0.2475-1.1138-0.375-1.6875-0.625-2.3125-0.625-2.3125-1.6875-4.8125-0.9375-2.5-0.9375-2.5-0.9375-6.5h-2c-1.3163-3.6197-2-6.0957-2-10h-2v-5h-2c-1.6036-3.5078-2.2204-6.1435-2-10h-2v-6h-2v-4h-2c-0.17016-0.67805-0.34031-1.3561-0.51562-2.0547-1.5047-5.7786-3.2793-11.201-5.7148-16.656-0.85753-2.5508-0.90649-4.6159-0.76953-7.2891h-2v-6h-2v-6h-2c-1.4226-3.8232-2.2404-6.9128-2-11h-2v-6h-2v-6h-2c-0.19336-0.71285-0.38672-1.4257-0.58594-2.1602-3.5455-13.041-3.5455-13.041-5.5391-19.465-0.77508-2.9896-1.0604-5.3159-0.875-8.375h-2v-6h-2c-0.18176-0.84562-0.36352-1.6912-0.55078-2.5625-2.3042-10.398-2.3042-10.398-4.1367-14.875-1.2844-3.4862-1.5879-5.8899-1.3125-9.5625h-2v-7h-2c-0.20496-0.99902-0.40992-1.998-0.62109-3.0273-0.26941-1.2904-0.53883-2.5807-0.81641-3.9102-0.26684-1.2878-0.53367-2.5755-0.80859-3.9023-0.75391-3.1602-0.75391-3.1602-1.7539-4.1602-0.14438-1.0312-0.28875-2.0625-0.4375-3.125-0.55073-3.7939-1.4885-7.1983-2.5625-10.875-0.73386-2.6603-1.434-5.3283-2.125-8-0.18176-0.67289-0.36352-1.3458-0.55078-2.0391-1.1421-4.4484-1.5036-8.3687-1.3242-12.961h-2v-8h-2v-8h-2v-9h-2v-8h-2c-0.060586-0.63809-0.12117-1.2762-0.18359-1.9336-0.083789-0.82629-0.16758-1.6526-0.25391-2.5039-0.081211-0.82371-0.16242-1.6474-0.24609-2.4961-0.31641-2.0664-0.31641-2.0664-1.3164-3.0664-0.4546-2.6546-0.70243-5.3219-1-8h-1v-10h-2c-0.13277-1.2762-0.26555-2.5523-0.40234-3.8672-0.17818-1.6693-0.35658-3.3386-0.53516-5.0078-0.087012-0.84176-0.17402-1.6835-0.26367-2.5508l-0.26367-2.4414c-0.078552-0.74363-0.1571-1.4873-0.23804-2.2534-0.29712-1.8794-0.29712-1.8794-1.2971-3.8794-0.30792-2.3308-0.50895-4.6624-0.71875-7.0039-0.28125-1.9961-0.28125-1.9961-1.2812-2.9961-0.32237-2.579-0.51267-5.1593-0.71875-7.75-0.28125-2.25-0.28125-2.25-1.2812-3.25-0.072265-1.8529-0.083812-3.7083-0.0625-5.5625 0.0090234-1.0119 0.018047-2.0238 0.027344-3.0664 0.011602-0.78246 0.023203-1.5649 0.035156-2.3711h-2v-12h-2c-0.060586-0.78246-0.12117-1.5649-0.18359-2.3711-0.083789-1.0119-0.16758-2.0238-0.25391-3.0664-0.081211-1.0093-0.16242-2.0187-0.24609-3.0586-0.31641-2.5039-0.31641-2.5039-1.3164-3.5039-0.072589-2.1864-0.083738-4.375-0.0625-6.5625l0.027344-3.6289c0.011602-0.92684 0.023203-1.8537 0.035156-2.8086h-2v-14h-2v-15h-2v-17h-2v-19h-2c-0.66-18.48-1.32-36.96-2-56 1.32-0.33 2.64-0.66 4-1v-2c3-2 3-2 7-2v-2c5.625-3 5.625-3 9-3v-2c2.6474-1.4606 3.8945-2 7-2v-2h3v-2c2.6474-1.4606 3.8945-2 7-2v-2h3v-2h4v-2h3v-2h4v-2c2.2673-1.1741 4.5383-2.3394 6.8125-3.5 0.6426-0.33387 1.2852-0.66773 1.9473-1.0117 2.9357-1.4907 4.9015-2.4883 8.2402-2.4883v-2h4v-2h3v-2h4v-2h4v-2h3v-2h4v-2c0.30873-0.11537 0.30873-0.11537 1.8711-0.69922 5.3399-2.0563 10.239-4.3572 15.121-7.3477 2.0078-0.95312 2.0078-0.95312 6.0078-0.95312v-2h4v-2h4v-2h4v-2h4v-2h4v-2h4v-2c0.72445-0.25395 1.4489-0.50789 2.1953-0.76953 4.2014-1.4957 8.2628-2.9546 12.242-4.9805 2.5625-1.25 2.5625-1.25 6.5625-1.25v-2h4v-2c3.371-1.4982 5.2044-2 9-2v-2h4v-2h5v-2c4.8106-1.9785 9.6061-3.915 14.562-5.5 3.1889-1.0216 6.1586-2.2606 9.1875-3.6875 3.2258-1.4858 5.636-2.2788 9.25-1.8125v-2c3.5078-1.6036 6.1435-2.2204 10-2v-2h5v-2h5v-2h5v-2h5v-2c0.64066-0.10957 1.2813-0.21914 1.9414-0.33203 5.4158-0.99277 10.01-2.4143 15.059-4.668 2.5139-0.78763 5.042-1.512 7.5742-2.2383 2.1782-0.68398 4.1707-1.4898 6.2383-2.4492 3.0581-1.2592 4.9342-1.6083 8.1875-1.3125v-2h6v-2h6v-2h6v-2h7v-2h6v-2c0.77344-0.10957 1.5469-0.21914 2.3438-0.33203 6.2951-0.95829 11.769-2.2731 17.656-4.668 4.8594-1.6198 8.8762-2.2091 14-2v-2c0.56719-0.072187 0.56719-0.072187 3.4375-0.4375 3.5625-0.5625 3.5625-0.5625 4.5625-1.5625 2.333-0.040929 4.6671-0.042417 7 0v-2h8v-2h8v-2h8v-2h8v-2c0.87141-0.12117 1.7428-0.24234 2.6406-0.36719 22.396-3.1509 22.396-3.1509 25.359-4.6328 2.3308-0.30792 4.6624-0.50895 7.0039-0.71875 1.9961-0.28125 1.9961-0.28125 2.9961-1.2812 2.3182-0.32098 4.6378-0.51221 6.9688-0.71875 2.0312-0.28125 2.0312-0.28125 3.0312-1.2812 2.579-0.32237 5.1593-0.51267 7.75-0.71875 2.25-0.28125 2.25-0.28125 3.25-1.2812 1.8529-0.072265 3.7083-0.083812 5.5625-0.0625 1.0119 0.0090234 2.0238 0.018047 3.0664 0.027344 0.78246 0.011602 1.5649 0.023203 2.3711 0.035156v-2h13v-2h13v-2c4.62-0.33 9.24-0.66 14-1v-1c2.64-0.165 2.64-0.165 16-1v-1h19v-2c35.528-1.954 71.005-2.3165 106.57-2.2571z" fill="#970000"/>
<path transform="translate(1025.6 335.74)" d="m0 0c5.0468 0.0075434 10.094 0.0048135 15.14-0.0036054 34.473-0.05617 68.855 0.31365 103.28 2.2607v2h20v1c5.28 0.33 10.56 0.66 16 1v2h15v2c0.46342-0.0058008 0.46342-0.0058008 2.8086-0.035156 1.1975-0.0090234 2.3951-0.018047 3.6289-0.027344 1.195-0.011602 2.3899-0.023203 3.6211-0.035156 2.9414 0.097656 2.9414 0.097656 3.9414 1.0977 2.0159 0.23428 4.0385 0.41336 6.0625 0.5625 1.1047 0.083789 2.2095 0.16758 3.3477 0.25391 0.85465 0.060586 1.7093 0.12117 2.5898 0.18359v2h12v2c0.39123-0.0058008 0.39123-0.0058008 2.3711-0.035156 1.0119-0.0090234 2.0238-0.018047 3.0664-0.027344 1.0093-0.011602 2.0187-0.023203 3.0586-0.035156 2.5039 0.097656 2.5039 0.097656 3.5039 1.0977 1.474 0.20768 2.9549 0.36716 4.4375 0.5 4.3433 0.39041 4.3433 0.39041 6.5625 1.5 2.3308 0.30792 4.6624 0.50895 7.0039 0.71875 1.9961 0.28125 1.9961 0.28125 2.9961 1.2812 2.6443 0.54853 5.277 1.0443 7.9375 1.5 0.7682 0.13382 1.5364 0.26764 2.3279 0.40552 5.5664 0.94813 11.103 1.6476 16.735 2.0945v1c2.97 0.33 5.94 0.66 9 1v1c1.32 0.165 1.32 0.165 8 1v2h8v2h8v2c0.56719-0.010312 0.56719-0.010312 3.4375-0.0625 3.5625 0.0625 3.5625 0.0625 4.5625 1.0625 2.3282 0.36761 4.6618 0.70242 7 1v2c0.99-0.061875 1.98-0.12375 3-0.1875 3.6201-0.0072042 6.3348 1.0689 9.6992 2.3879 4.1639 1.447 8.4758 2.1793 12.801 2.9871 0.91781 0.17725 1.8356 0.35449 2.7812 0.53711 2.2385 0.43137 4.4779 0.85636 6.7188 1.2754v2h7v1c1.98 0.33 3.96 0.66 6 1v2h6v2c0.84562-0.04125 1.6912-0.0825 2.5625-0.125 3.8596 0.14035 6.7744 0.9528 10.438 2.125v2h6v2c0.68062-0.061875 1.3612-0.12375 2.0625-0.1875 3.0051 0.19182 5.0193 1.0145 7.7266 2.2617 7.738 3.2401 16.009 5.2576 24.211 6.9258v2h5v2h6v2h5v2h5v2h5v2c0.72187-0.046406 1.4437-0.092812 2.1875-0.14062 3.1817 0.15908 4.9828 0.95854 7.8125 2.3906 5.2028 2.4852 10.428 4.2414 15.957 5.8555 4.5166 1.3277 8.8876 2.657 13.043 4.8945v2h5v2h4v2h5v2h4v2c0.7425 0.14437 1.485 0.28875 2.25 0.4375 2.2703 0.46437 4.5076 0.98114 6.75 1.5625v2c0.6948 0.12246 1.3896 0.24492 2.1055 0.37109 3.1642 0.68749 6.1426 1.6475 9.207 2.6914 1.0686 0.36223 2.1373 0.72445 3.2383 1.0977 0.80824 0.27715 1.6165 0.5543 2.4492 0.83984v2h4v2h4v2h4v2c0.73501 0.12528 1.47 0.25056 2.2273 0.37964 2.6337 0.58926 4.7139 1.3792 7.136 2.5461 0.80502 0.38479 1.61 0.76957 2.4395 1.166 0.82822 0.40283 1.6564 0.80566 2.5098 1.2207 0.40831 0.19562 0.40831 0.19562 2.4746 1.1855 4.4951 2.1598 8.965 4.3654 13.413 6.6208 2.8852 1.4123 5.8353 2.6458 8.8 3.8811v2h4v2h4v2h3v2h4v2c0.29906 0.072187 0.29906 0.072187 1.8125 0.4375 1.749 0.44974 3.4743 0.99142 5.1875 1.5625v2c0.52078 0.10184 1.0416 0.20367 1.5781 0.30859 3.23 0.92212 6.1333 2.3258 9.1719 3.7539 1.1705 0.54785 2.3409 1.0957 3.5469 1.6602 0.89203 0.42152 1.7841 0.84305 2.7031 1.2773v2h3v2c0.29906 0.072187 0.29906 0.072187 1.8125 0.4375 1.749 0.44974 3.4743 0.99142 5.1875 1.5625v2h3v2c0.53625 0.10312 1.0725 0.20625 1.625 0.3125 3 0.86843 5.613 2.2437 8.375 3.6875v2c0.57234 0.12246 1.1447 0.24492 1.7344 0.37109 2.3652 0.65653 4.3377 1.5661 6.5156 2.6914 0.70641 0.36223 1.4128 0.72445 2.1406 1.0977 0.53109 0.27715 1.0622 0.5543 1.6094 0.83984v2h3v2h3v2h2c0.35922 21.407-0.67887 42.642-2 64h-2v18h-2c0.011602 1.0712 0.023203 2.1424 0.035156 3.2461 0.0093767 1.3971 0.018477 2.7943 0.027344 4.1914 0.0083789 0.70705 0.016758 1.4141 0.025391 2.1426 0.0086453 1.8069-0.035691 3.6138-0.087891 5.4199-0.33 0.33-0.66 0.66-1 1-0.20969 2.3299-0.36815 4.6644-0.5 7-0.38889 6.8889-0.38889 6.8889-1.5 8-0.23482 2.1829-0.41363 4.372-0.5625 6.5625-0.041895 0.59877-0.041895 0.59877-0.25391 3.6289-0.030293 0.46342-0.030293 0.46342-0.18359 2.8086h-2c0.011602 0.92684 0.023203 1.8537 0.035156 2.8086 0.0045117 0.59877 0.0045117 0.59877 0.027344 3.6289 0.011602 1.195 0.023203 2.3899 0.035156 3.6211-0.097656 2.9414-0.097656 2.9414-1.0977 3.9414-0.20896 1.8081-0.3678 3.6222-0.5 5.4375-0.39008 5.3427-0.39008 5.3427-1.5 7.5625-0.20222 1.6627-0.36411 3.3305-0.5 5-0.38889 4.7778-0.38889 4.7778-1.5 7-0.20093 1.4958-0.36336 2.997-0.5 4.5-0.38889 4.2778-0.38889 4.2778-1.5 6.5-0.20222 1.6627-0.36411 3.3305-0.5 5-0.38889 4.7778-0.38889 4.7778-1.5 7-0.20535 1.3606-0.36591 2.7282-0.5 4.0977-0.0825 0.80115-0.165 1.6023-0.25 2.4277-0.16705 1.6953-0.33371 3.3906-0.5 5.0859-0.64847 6.2871-0.64847 6.2871-1.75 7.3887-0.23193 1.5147-0.41215 3.0375-0.5625 4.5625-0.041895 0.41314-0.041895 0.41314-0.25391 2.5039l-0.18359 1.9336h-2v10h-2v9h-2v10h-2c0.020625 1.2994 0.04125 2.5988 0.0625 3.9375 0.021495 1.3542 0.008982 2.7101-0.0625 4.0625-0.33 0.33-0.66 0.66-1 1-0.23075 1.3475-0.41153 2.7038-0.5625 4.0625-0.14438 1.2994-0.28875 2.5988-0.4375 3.9375h-2c0.020625 1.2994 0.04125 2.5988 0.0625 3.9375 0.021495 1.3542 0.008982 2.7101-0.0625 4.0625-0.33 0.33-0.66 0.66-1 1l-0.5 3.5c-0.5 3.5-0.5 3.5-1.5 4.5-0.23075 1.3475-0.41153 2.7038-0.5625 4.0625-0.14438 1.2994-0.28875 2.5988-0.4375 3.9375h-2v8h-2c-0.030293 0.49951-0.030293 0.49951-0.18359 3.0273-0.041895 0.64518-0.041895 0.64518-0.25391 3.9102-0.081211 1.2878-0.16242 2.5755-0.24609 3.9023-0.31641 3.1602-0.31641 3.1602-1.3164 4.1602-0.36761 2.3282-0.70242 4.6618-1 7h-2v7h-2v7h-2c0.061875 1.0106 0.12375 2.0212 0.1875 3.0625-0.20676 4.342-1.4287 6.9979-3.1875 10.938-0.40541 2.3219-0.76073 4.6552-1 7h-2v6h-2c0.048984 0.84047 0.097969 1.6809 0.14844 2.5469-0.17079 3.973-1.1717 6.9684-2.5234 10.703-1.8137 5.1534-3.2773 10.202-4.2227 15.586-0.58178 3.1292-1.4762 6.121-2.4023 9.1641h-2v6h-2v6h-2v5h-2v6h-2v6h-2v6h-2v5h-2c0.061875 0.66 0.12375 1.32 0.1875 2-0.21001 3.3602-1.1429 5.7684-2.3867 8.8633-1.2419 3.3137-2.0011 6.6921-2.8008 10.137h-2v5h-2v5h-2v6h-2v4h-2v5h-2c0.020625 0.36094 0.020625 0.36094 0.125 2.1875-0.13421 3.0198-0.87671 5.0819-2.125 7.8125h-2l0.25 1.9375c-0.30953 3.7918-1.6817 6.4918-3.293 9.9023-1.0456 2.36-1.6268 4.6006-1.957 7.1602h-2v4h-2c0.020625 0.37125 0.020625 0.37125 0.125 2.25-0.12898 2.8376-0.69551 4.3377-2.125 6.75h-2c0.020625 0.36094 0.020625 0.36094 0.125 2.1875-0.13421 3.0198-0.87671 5.0819-2.125 7.8125h-2v4h-2c-0.14438 0.92812-0.28875 1.8563-0.4375 2.8125-0.5625 3.1875-0.5625 3.1875-1.5625 6.1875h-2v4h-2c-0.12375 0.86625-0.2475 1.7325-0.375 2.625-0.60558 3.2701-1.5081 6.2476-2.625 9.375h-2v5h-2v4h-2v4h-2v4h-2v4h-2v4h-2c-0.066064 0.29358-0.066064 0.29358-0.40039 1.7793-1.1123 4.1196-3.2193 7.8999-5.0723 11.732-1.4991 3.1424-2.7636 6.0942-3.5273 9.4883h-2v3h-2v4h-2v4h-2v4h-2v4h-2c-0.14438 0.59812-0.28875 1.1962-0.4375 1.8125-0.44974 1.749-0.99142 3.4743-1.5625 5.1875h-2v4h-2c-0.050918 0.26039-0.050918 0.26039-0.30859 1.5781-0.92212 3.23-2.3258 6.1333-3.7539 9.1719-0.54785 1.1705-1.0957 2.3409-1.6602 3.5469-0.42152 0.89203-0.84305 1.7841-1.2773 2.7031h-2c-0.14438 0.61875-0.28875 1.2375-0.4375 1.875-0.5625 2.125-0.5625 2.125-1.5625 4.125h-2v4h-2v4h-2c-0.11215 0.56203-0.2243 1.1241-0.33984 1.7031-0.75073 2.612-1.8718 4.6916-3.2227 7.0469-0.45504 0.79922-0.91008 1.5984-1.3789 2.4219-0.34934 0.60328-0.69867 1.2066-1.0586 1.8281h-2c-0.19336 0.61488-0.38672 1.2298-0.58594 1.8633-0.26039 0.80824-0.52078 1.6165-0.78906 2.4492-0.25523 0.80051-0.51047 1.601-0.77344 2.4258-0.85156 2.2617-0.85156 2.2617-2.8516 5.2617h-2c-0.14438 0.59812-0.28875 1.1962-0.4375 1.8125-0.44974 1.749-0.99142 3.4743-1.5625 5.1875h-2c-0.23203 0.79406-0.46406 1.5881-0.70312 2.4062-8.0808 22.393-23.141 43.212-37.821 61.721-1.3948 1.77-2.7646 3.5558-4.124 5.353-5.0257 6.6431-10.267 13.055-15.684 19.379-2.5301 2.9598-4.9769 5.9819-7.418 9.0156-3.0158 3.708-6.1383 7.1356-9.5742 10.453-1.8018 1.7976-3.4556 3.6785-5.1133 5.6094-2.9686 3.4467-6.1033 6.6536-9.375 9.8125-1.8551 1.9081-3.5835 3.8539-5.3164 5.8711-4.3785 5.0389-9.0795 9.7336-13.809 14.441-0.85529 0.85916-1.7106 1.7183-2.5918 2.6035-4.447 4.4402-8.9642 8.7175-13.731 12.812-2.3615 2.0653-4.5521 4.2747-6.74 6.5217-3.4691 3.5059-7.0028 6.828-10.75 10.031-2.339 2.0467-4.611 4.1531-6.8821 6.2744-5.4055 5.0482-10.918 9.8503-16.688 14.483-2.8122 2.3203-5.4977 4.7416-8.1797 7.2109-4.8093 4.4165-9.7771 8.5695-14.858 12.667-2.5836 2.0972-5.145 4.221-7.7095 6.3416-11.963 9.8871-24.036 19.602-36.39 28.997-4.418 3.3611-8.8077 6.7551-13.178 10.178-15.077 11.803-30.583 23.014-46.122 34.198-2.2733 1.6398-4.5418 3.286-6.8091 4.9341-8.3566 6.0693-16.767 12.041-25.299 17.86-3.1463 2.1466-6.2854 4.3033-9.4208 6.4657-9.7663 6.7325-19.582 13.391-29.413 20.028-1.8677 1.2618-3.7346 2.5248-5.6006 3.7891-10.845 7.3471-21.729 14.586-32.899 21.429-1.3053 0.80582-2.6049 1.6208-3.9009 2.4413-0.35162 0.22259-0.35162 0.22259-2.131 1.349-0.31895 0.20316-0.31895 0.20316-1.9331 1.2313-2.724 1.6175-5.5582 2.7383-8.5228 3.8398-1.0764 0.40734-2.1527 0.81469-3.2617 1.2344-5.7592 1.9173-11.087 2.2562-17.113 2.3281-0.39155 0.014502-0.39155 0.014502-2.373 0.087891-11.405 0.12005-20.67-4.5487-29.939-10.775-1.9151-1.253-3.8305-2.5056-5.7461-3.7578-0.48461-0.31985-0.48461-0.31985-2.937-1.9385-3.8303-2.5111-7.6989-4.9589-11.571-7.4048-8.9739-5.6685-17.864-11.446-26.666-17.378-2.2113-1.4862-4.4325-2.9573-6.6533-4.4292-18.774-12.46-37.406-25.143-55.814-38.138-2.2008-1.553-4.4044-3.1017-6.6089-4.6494-23.057-16.205-45.756-32.883-68.13-50.018-2.3682-1.8124-4.7394-3.6209-7.1118-5.4277-14.054-10.709-27.874-21.645-41.484-32.914-2.5187-2.0791-5.0542-4.137-7.5898-6.1953-5.3112-4.3404-10.516-8.7992-15.711-13.277-2.3494-2.0251-4.7083-4.0379-7.0781-6.0391-6.9538-5.8855-13.701-11.944-20.331-18.192-3.0964-2.9172-6.2052-5.7922-9.4426-8.554-7.0964-6.1223-13.673-12.903-19.75-20.031-2.1691-2.4741-4.4086-4.8704-6.6611-7.2683-6.0664-6.4613-11.837-13.058-17.339-20.013-0.99829-1.2412-1.997-2.4821-2.9961-3.7227-1.0227-1.2795-2.0449-2.5594-3.0664-3.8398-0.49-0.60844-0.98001-1.2169-1.4849-1.8438-3.4526-4.3644-3.4526-4.3644-3.4526-6.5938h-2c-4-5.4118-4-5.4118-4-8-0.66-0.33-1.32-0.66-2-1-3-4.5-3-4.5-3-7h-2c-0.66-1.98-1.32-3.96-2-6h-2v-3h-2c-4-5.4118-4-5.4118-4-8h-2c-1.7266-2.5547-1.7266-2.5547-3.625-5.875-0.31582-0.54527-0.31582-0.54527-1.9141-3.3047-1.4609-2.8203-1.4609-2.8203-1.4609-4.8203h-2c-0.66-1.65-1.32-3.3-2-5h-2c-0.33-0.99-0.33-0.99-2-6h-2v-4h-2v-2h-2v-4h-2c-3-4.3846-3-4.3846-3-7h-2c-0.67155-1.2891-1.3371-2.5814-2-3.875-0.37125-0.7193-0.7425-1.4386-1.125-2.1797-0.875-1.9453-0.875-1.9453-0.875-3.9453h-2c-0.33-0.99-0.33-0.99-2-6h-2c-1.4606-2.6474-2-3.8945-2-7h-2c-2-3-2-3-2-6h-2v-4h-2c-1.7266-2.5195-1.7266-2.5195-3.625-5.8125-0.63164-1.0789-1.2633-2.1579-1.9141-3.2695-1.4609-2.918-1.4609-2.918-1.4609-5.918h-2v-4h-2c-0.33-0.99-0.33-0.99-2-6h-2v-4h-2c-1.4606-2.6474-2-3.8945-2-7h-2v-4h-2c-0.84069-1.6003-1.6723-3.2054-2.5-4.8125-0.46406-0.89332-0.92812-1.7866-1.4062-2.707-1.0938-2.4805-1.0938-2.4805-1.0938-5.4805h-2v-4h-2v-4h-2c-4-6.625-4-6.625-4-10h-2v-4h-2c-0.84267-1.7455-1.6738-3.4966-2.5-5.25-0.46406-0.97453-0.92812-1.9491-1.4062-2.9531-1.0938-2.7969-1.0938-2.7969-1.0938-6.7969h-2v-4h-2c-1.2942-2.5613-2.5854-5.1239-3.875-7.6875-0.3648-0.72123-0.72961-1.4425-1.1055-2.1855-5.0195-9.9934-5.0195-9.9934-5.0195-15.127h-2c-9-17.214-9-17.214-9-24h-2v-4h-2v-4h-2c-1.3163-3.6197-2-6.0957-2-10h-2c-1.8578-3.135-2.2014-5.3747-2-9h-2v-4h-2c-1.6036-3.5078-2.2204-6.1435-2-10h-2c-0.12375-0.55688-0.2475-1.1138-0.375-1.6875-0.625-2.3125-0.625-2.3125-1.6875-4.8125-0.9375-2.5-0.9375-2.5-0.9375-6.5h-2c-1.3163-3.6197-2-6.0957-2-10h-2v-5h-2c-1.6036-3.5078-2.2204-6.1435-2-10h-2v-6h-2v-4h-2c-0.17016-0.67805-0.34031-1.3561-0.51562-2.0547-1.5047-5.7786-3.2793-11.201-5.7148-16.656-0.85753-2.5508-0.90649-4.6159-0.76953-7.2891h-2v-6h-2v-6h-2c-1.4226-3.8232-2.2404-6.9128-2-11h-2v-6h-2v-6h-2c-0.19336-0.71285-0.38672-1.4257-0.58594-2.1602-3.5455-13.041-3.5455-13.041-5.5391-19.465-0.77508-2.9896-1.0604-5.3159-0.875-8.375h-2v-6h-2c-0.18176-0.84562-0.36352-1.6912-0.55078-2.5625-2.3042-10.398-2.3042-10.398-4.1367-14.875-1.2844-3.4862-1.5879-5.8899-1.3125-9.5625h-2v-7h-2c-0.20496-0.99902-0.40992-1.998-0.62109-3.0273-0.26941-1.2904-0.53883-2.5807-0.81641-3.9102-0.26684-1.2878-0.53367-2.5755-0.80859-3.9023-0.75391-3.1602-0.75391-3.1602-1.7539-4.1602-0.14438-1.0312-0.28875-2.0625-0.4375-3.125-0.55073-3.7939-1.4885-7.1983-2.5625-10.875-0.73386-2.6603-1.434-5.3283-2.125-8-0.18176-0.67289-0.36352-1.3458-0.55078-2.0391-1.1421-4.4484-1.5036-8.3687-1.3242-12.961h-2v-8h-2v-8h-2v-9h-2v-8h-2c-0.060586-0.63809-0.12117-1.2762-0.18359-1.9336-0.083789-0.82629-0.16758-1.6526-0.25391-2.5039-0.081211-0.82371-0.16242-1.6474-0.24609-2.4961-0.31641-2.0664-0.31641-2.0664-1.3164-3.0664-0.4546-2.6546-0.70243-5.3219-1-8h-1v-10h-2c-0.13277-1.2762-0.26555-2.5523-0.40234-3.8672-0.17818-1.6693-0.35658-3.3386-0.53516-5.0078-0.087012-0.84176-0.17402-1.6835-0.26367-2.5508l-0.26367-2.4414c-0.078552-0.74363-0.1571-1.4873-0.23804-2.2534-0.29712-1.8794-0.29712-1.8794-1.2971-3.8794-0.30792-2.3308-0.50895-4.6624-0.71875-7.0039-0.28125-1.9961-0.28125-1.9961-1.2812-2.9961-0.32237-2.579-0.51267-5.1593-0.71875-7.75-0.28125-2.25-0.28125-2.25-1.2812-3.25-0.072265-1.8529-0.083812-3.7083-0.0625-5.5625 0.0090234-1.0119 0.018047-2.0238 0.027344-3.0664 0.011602-0.78246 0.023203-1.5649 0.035156-2.3711h-2v-12h-2c-0.060586-0.78246-0.12117-1.5649-0.18359-2.3711-0.083789-1.0119-0.16758-2.0238-0.25391-3.0664-0.081211-1.0093-0.16242-2.0187-0.24609-3.0586-0.31641-2.5039-0.31641-2.5039-1.3164-3.5039-0.072589-2.1864-0.083738-4.375-0.0625-6.5625l0.027344-3.6289c0.011602-0.92684 0.023203-1.8537 0.035156-2.8086h-2v-14h-2v-15h-2v-17h-2v-19h-2c-0.66-18.48-1.32-36.96-2-56 1.32-0.33 2.64-0.66 4-1v-2c3-2 3-2 7-2v-2c5.625-3 5.625-3 9-3v-2c2.6474-1.4606 3.8945-2 7-2v-2h3v-2c2.6474-1.4606 3.8945-2 7-2v-2h3v-2h4v-2h3v-2h4v-2c2.2673-1.1741 4.5383-2.3394 6.8125-3.5 0.6426-0.33387 1.2852-0.66773 1.9473-1.0117 2.9357-1.4907 4.9015-2.4883 8.2402-2.4883v-2h4v-2h3v-2h4v-2h4v-2h3v-2h4v-2c0.30873-0.11537 0.30873-0.11537 1.8711-0.69922 5.3399-2.0563 10.239-4.3572 15.121-7.3477 2.0078-0.95312 2.0078-0.95312 6.0078-0.95312v-2h4v-2h4v-2h4v-2h4v-2h4v-2h4v-2c0.72445-0.25395 1.4489-0.50789 2.1953-0.76953 4.2014-1.4957 8.2628-2.9546 12.242-4.9805 2.5625-1.25 2.5625-1.25 6.5625-1.25v-2h4v-2c3.371-1.4982 5.2044-2 9-2v-2h4v-2h5v-2c4.8106-1.9785 9.6061-3.915 14.562-5.5 3.1889-1.0216 6.1586-2.2606 9.1875-3.6875 3.2258-1.4858 5.636-2.2788 9.25-1.8125v-2c3.5078-1.6036 6.1435-2.2204 10-2v-2h5v-2h5v-2h5v-2h5v-2c0.64066-0.10957 1.2813-0.21914 1.9414-0.33203 5.4158-0.99277 10.01-2.4143 15.059-4.668 2.5139-0.78763 5.042-1.512 7.5742-2.2383 2.1782-0.68398 4.1707-1.4898 6.2383-2.4492 3.0581-1.2592 4.9342-1.6083 8.1875-1.3125v-2h6v-2h6v-2h6v-2h7v-2h6v-2c0.77344-0.10957 1.5469-0.21914 2.3438-0.33203 6.2951-0.95829 11.769-2.2731 17.656-4.668 4.8594-1.6198 8.8762-2.2091 14-2v-2c0.56719-0.072187 0.56719-0.072187 3.4375-0.4375 3.5625-0.5625 3.5625-0.5625 4.5625-1.5625 2.333-0.040929 4.6671-0.042417 7 0v-2h8v-2h8v-2h8v-2h8v-2c0.87141-0.12117 1.7428-0.24234 2.6406-0.36719 22.396-3.1509 22.396-3.1509 25.359-4.6328 2.3308-0.30792 4.6624-0.50895 7.0039-0.71875 1.9961-0.28125 1.9961-0.28125 2.9961-1.2812 2.3182-0.32098 4.6378-0.51221 6.9688-0.71875 2.0312-0.28125 2.0312-0.28125 3.0312-1.2812 2.579-0.32237 5.1593-0.51267 7.75-0.71875 2.25-0.28125 2.25-0.28125 3.25-1.2812 1.8529-0.072265 3.7083-0.083812 5.5625-0.0625 1.0119 0.0090234 2.0238 0.018047 3.0664 0.027344 0.78246 0.011602 1.5649 0.023203 2.3711 0.035156v-2h13v-2h13v-2c4.62-0.33 9.24-0.66 14-1v-1c2.64-0.165 2.64-0.165 16-1v-1h19v-2c35.528-1.954 71.005-2.3165 106.57-2.2571zm-42.387 38.695c-0.62113 0.019578-0.62113 0.019578-3.7644 0.11865-4.6035 0.17041-9.1512 0.39765-13.727 0.9375-4.6056 0.53024-9.1911 0.74546-13.822 0.92432-11.343 0.50889-22.592 1.6583-33.875 2.8945-0.51401 0.055551-0.51401 0.055551-3.1152 0.33667-16.354 1.7705-32.632 3.8021-48.885 6.3508-2.5195 0.38291-5.039 0.76571-7.5586 1.1484-17.606 2.7152-35.041 6.0359-52.441 9.8516-0.76133 0.16627-1.5227 0.33254-2.3071 0.50385-29.856 6.5221-59.419 13.681-88.693 22.496-1.0625 0.3163-2.125 0.63261-3.2197 0.9585-47.377 14.141-93.743 31.662-138.78 52.042-1.0967 0.49387-2.1933 0.98774-3.3232 1.4966-29.082 13.13-57.718 27.125-85.677 42.503-1.1444 0.62648-2.2887 1.253-3.4678 1.8984-15.336 8.4033-30.667 16.881-45.532 26.102-1.0713 0.58064-2.1426 1.1613-3.2463 1.7595-2.7537 2.2405-2.7537 2.2405-3.4143 5.1775 0.050435 1.1938 0.10087 2.3877 0.15283 3.6177 0.023676 0.68593 0.047353 1.3719 0.071747 2.0786 0.10347 2.4596 0.26522 4.9109 0.43607 7.3667 0.062238 0.95862 0.12448 1.9172 0.1886 2.9049 0.54017 8.0828 1.225 16.151 1.9364 24.22 0.10971 1.2648 0.21942 2.5296 0.33246 3.8327 1.5351 17.582 3.3581 35.107 5.6675 52.605 0.12184 0.92629 0.24367 1.8526 0.3692 2.8069 1.4343 10.796 3.1209 21.521 5.074 32.235 0.85175 4.7267 1.6626 9.4606 2.4825 14.193 3.9701 22.812 7.9586 45.588 12.949 68.203 0.25958 1.1919 0.51917 2.3838 0.78662 3.6118 3.3789 15.48 7.0161 30.888 10.838 46.263 0.18205 0.73615 0.3641 1.4723 0.55167 2.2307 2.2809 9.2004 4.7743 18.311 7.4886 27.393 1.4721 4.9339 2.8723 9.8875 4.2761 14.841 2.8776 10.112 5.8883 20.179 8.9961 30.223 0.27329 0.88336 0.54658 1.7667 0.82816 2.6768 17.851 57.535 38.908 114.08 64.234 168.76 0.31109 0.67225 0.62217 1.3445 0.94269 2.0371 11.8 25.478 23.976 50.691 37.575 75.267 1.4639 2.6621 2.9063 5.3347 4.3418 8.0122 15.244 28.38 32.004 56.055 50.141 82.684 3.3974-1.5187 6.0162-3.5028 8.875-5.875 0.96938-0.80438 1.9388-1.6087 2.9375-2.4375 4.5748-3.8447 9.1068-7.7394 13.637-11.637 7.2611-6.2451 14.556-12.447 21.988-18.488 5.4182-4.4116 10.715-8.9557 16.012-13.512 7.2611-6.2451 14.556-12.447 21.988-18.488 4.8638-3.9576 9.6213-8.0279 14.371-12.121 3.5246-3.0311 7.082-6.0115 10.692-8.9417 5.4008-4.3871 10.675-8.9122 15.949-13.449 7.2611-6.2451 14.556-12.447 21.988-18.488 4.8638-3.9576 9.6213-8.0279 14.371-12.121 3.5246-3.0311 7.082-6.0115 10.692-8.9417 5.4008-4.3871 10.675-8.9122 15.949-13.449 7.2611-6.2451 14.556-12.447 21.988-18.488 5.4182-4.4116 10.715-8.9557 16.012-13.512 7.2611-6.2451 14.556-12.447 21.988-18.488 4.8638-3.9576 9.6213-8.0279 14.371-12.121 3.5246-3.0311 7.082-6.0115 10.692-8.9417 5.4008-4.3871 10.675-8.9122 15.949-13.449 7.2611-6.2451 14.556-12.447 21.988-18.488 5.4182-4.4116 10.715-8.9557 16.012-13.512 7.2611-6.2451 14.556-12.447 21.988-18.488 4.2464-3.4553 8.4151-6.9899 12.562-10.562 4.349-3.7403 8.7096-7.4632 13.125-11.125 0.8482-0.70383 1.6964-1.4077 2.5703-2.1328 2.0496-1.5494 3.9668-2.6971 6.3047-3.7422 0.66645 0.61746 1.3329 1.2349 2.0195 1.8711 5.5422 5.0926 11.173 9.9846 17.031 14.715 3.3629 2.7527 6.6585 5.5759 9.9492 8.4141 4.1245 3.5547 8.2721 7.0679 12.5 10.5 4.846 3.9338 9.581 7.9845 14.309 12.059 3.5246 3.031 7.0819 6.0113 10.691 8.9414 4.846 3.9338 9.581 7.9845 14.309 12.059 3.5246 3.031 7.0819 6.0113 10.691 8.9414 5.4008 4.3871 10.675 8.9122 15.949 13.449 7.2611 6.2451 14.556 12.447 21.988 18.488 4.8638 3.9576 9.6213 8.0279 14.371 12.121 3.5246 3.0311 7.082 6.0115 10.692 8.9417 5.4008 4.3871 10.675 8.9122 15.949 13.449 7.2611 6.2451 14.556 12.447 21.988 18.488 5.4182 4.4116 10.715 8.9557 16.012 13.512 7.2611 6.2451 14.556 12.447 21.988 18.488 4.8638 3.9576 9.6213 8.0279 14.371 12.121 3.5246 3.0311 7.082 6.0115 10.692 8.9417 5.4008 4.3871 10.675 8.9122 15.949 13.449 7.2611 6.2451 14.556 12.447 21.988 18.488 4.8638 3.9576 9.6213 8.0279 14.371 12.121 3.5246 3.0311 7.082 6.0115 10.692 8.9417 5.4008 4.3871 10.675 8.9122 15.949 13.449 7.2611 6.2451 14.556 12.447 21.988 18.488 4.2935 3.4912 8.4994 7.0716 12.688 10.688 5.1679 4.4601 10.415 8.7729 15.875 12.875 4.3012-1.9116 6.1991-4.2655 9-8v-2h2c1.553-2.1487 1.553-2.1487 3.3789-5.1602 0.6691-1.0957 1.3382-2.1914 2.0276-3.3203 0.71891-1.1939 1.4376-2.3879 2.156-3.582 0.73698-1.2139 1.4745-2.4274 2.2126-3.6406 1.4464-2.3804 2.8886-4.7633 4.3264-7.1489 1.47-2.4376 2.9461-4.871 4.4297-7.3003 2.1844-3.6 4.3366-7.2165 6.4688-10.848 0.52884-0.90057 1.0577-1.8011 1.6025-2.729 9.5028-16.23 18.637-32.629 27.397-49.271 0.32678-0.61962 0.65355-1.2392 0.99023-1.8776 22.59-42.857 42.565-86.921 60.01-132.12 0.28704-0.74316 0.57408-1.4863 0.86981-2.252 8.8827-23.033 17.203-46.202 24.812-69.687 1.2219-3.7712 2.464-7.5356 3.709-11.299 5.3848-16.383 10.175-32.913 14.835-49.514 1.186-4.2111 2.4111-8.4086 3.6631-12.6 2.744-9.1997 5.1818-18.454 7.4863-27.773 0.19098-0.76825 0.38197-1.5365 0.57874-2.328 8.5873-34.574 15.609-69.376 21.686-104.47 0.34808-2.0066 0.69786-4.0129 1.0485-6.0191 0.64761-3.7059 1.2926-7.4122 1.9365-11.119 0.18176-1.0419 0.36352-2.0838 0.55078-3.1572 0.49446-2.8642 0.98077-5.7296 1.4594-8.5965 0.26577-1.5906 0.53334-3.1809 0.802-4.7711 2.8489-16.94 5.0985-33.912 7.0629-50.975 0.14897-1.2821 0.29793-2.5643 0.45142-3.8853 2.1211-18.327 4.0033-36.667 5.5486-55.052 0.087898-1.0269 0.1758-2.0538 0.26636-3.1118 0.24269-2.8684 0.475-5.7373 0.70239-8.6069 0.070415-0.83877 0.14083-1.6775 0.21338-2.5417 0.27359-3.6386 0.45626-6.7572-0.68213-10.24-1.4768-1.3335-1.4768-1.3335-3.4102-2.5234-0.72985-0.45625-1.4597-0.9125-2.2117-1.3826-0.40271-0.24238-0.40271-0.24238-2.4407-1.469-0.84345-0.51893-1.6869-1.0379-2.5559-1.5725-2.7836-1.7018-5.5802-3.3801-8.3816-5.0525-0.94521-0.56606-1.8904-1.1321-2.8643-1.7153-14.822-8.8419-29.884-17.21-45.136-25.285-1.0988-0.58362-2.1975-1.1672-3.3296-1.7686-64.223-34.007-131.67-59.947-200.82-82.001-3.2335-1.032-6.4614-2.0803-9.687-3.1367-10.202-3.322-20.49-6.0163-30.916-8.541-3.0944-0.76216-6.1689-1.5916-9.2441-2.4277-2.666-0.71111-5.3326-1.4192-8-2.125-0.87833-0.23413-1.7567-0.46825-2.6616-0.70947-33.398-8.8356-67.375-15.319-101.49-20.679-3.4058-0.54092-6.8055-1.1081-10.205-1.6895-25.979-4.351-52.336-6.6326-78.555-9.0352-0.88673-0.081543-1.7735-0.16309-2.6871-0.2471-8.7937-0.79263-17.581-1.2986-26.403-1.6396-1.1115-0.045117-2.223-0.090234-3.3682-0.13672-34.767-1.3573-69.668-1.5246-104.44-0.42578z" fill="#FEFEFE"/>
<path transform="translate(749.18 525.34)" d="m0 0c7.163 6.5034 12.473 15.964 12.985 25.73 0.19235 16.551 0.19446 32.644-3.1611 48.926-0.18804 0.98114-0.37608 1.9623-0.56982 2.9731-4.9934 25.928-13.13 51.144-24.43 75.027-0.32098 0.67917-0.64195 1.3583-0.97266 2.0581-6.1328 12.731-6.1328 12.731-12.027 15.942-2.9859 0.70221-5.8187 0.71432-8.875 0.625-0.83644-0.015469-1.6729-0.030937-2.5347-0.046875-8.4425-0.33303-15.82-2.3696-23.59-5.5781-0.35731-0.14736-0.35731-0.14736-2.1655-0.89307-27.028-11.426-27.028-11.426-31.834-23.107-0.45781-4.5327-0.67608-6.8429 1.625-10.781 0.78375-0.89719 1.5675-1.7944 2.375-2.7188 13.086-15.779 23.814-33.748 34-51.5 0.5211-0.90524 1.0422-1.8105 1.5791-2.7432 17.048-29.822 17.048-29.822 16.421-41.257-8.4442-1.1259-14.773 3.5546-21.328 8.4258-3.6267 2.7741-7.1595 5.6574-10.672 8.5742-0.28827 0.23872-0.28827 0.23872-1.7471 1.4468-12.467 10.38-24.36 21.42-35.691 33.028-2.7297 2.778-5.5326 5.3939-8.488 7.9319-4.0357 3.4939-7.7013 7.2404-11.324 11.156-0.64695 0.6969-1.2939 1.3938-1.9604 2.1118-13.815 14.963-26.872 30.38-36.477 48.451-0.20504 0.38458-0.20504 0.38458-1.2427 2.3308-3.6955 7.2341-5.8883 14.36-5.0698 22.544 1.56 2.8229 2.9489 3.6913 6.0235 4.5943 8.2696 1.6684 16.354 1.6112 24.747 1.4949 2.6458-0.035372 5.2913-0.055568 7.9372-0.071835 7.5167-0.048344 15.033-0.11875 22.549-0.20926 35.606-0.41336 75.924-0.78155 103.74 25.192 5.3808 5.7525 9.3834 11.567 12 19 0.29777 0.73734 0.59555 1.4747 0.90234 2.2344 7.012 20.293 0.99661 44.077-7.8931 62.799-4.805 9.3613-11.666 17.497-19.009 24.966-0.73477 0.74766-1.4695 1.4953-2.2266 2.2656-11.33 10.838-25.221 18.191-39.773 23.734-0.60199 0.23074-0.60199 0.23074-3.6484 1.3984-31.216 10.798-68.331 10.863-100.35 3.6016-0.83499-0.18724-1.67-0.37447-2.5303-0.56738-12.541-2.9172-30.877-7.2579-39.47-17.433-6.5529-10.621-10.306-21.384-9-34 2.1064-5.5532 2.1064-5.5532 5-7 5.1851-0.38206 9.5026 0.52367 14.521 1.7793 26.27 6.3565 55.013 4.5246 81.479 0.2207 1.4555-0.20843 2.9112-0.41556 4.3672-0.62109 23.752-3.7862 52.887-14.448 68.633-33.379 2.8553-4.4212 3.5944-7.7494 3-13-1.8312-2.6159-2.9097-2.9699-6-4-14.133-1.2808-28.37 0.23456-42.417 1.7162-16.817 1.7624-33.484 2.7236-50.395 2.7838-0.95626 0.0099902-1.9125 0.01998-2.8978 0.030273-29.351 0.25344-58.735-5.5685-80.481-26.655-13.153-13.977-14.473-28.086-14.18-46.484 1.2335-34.011 17.613-67.699 36.371-95.391 0.19408-0.29133 0.19408-0.29133 1.1763-1.7656 4.3062-6.431 8.8458-11.373 14.824-16.234 1.01-0.88668 2.0162-1.7777 3.0195-2.6719 8.847-7.8423 18.169-14.743 27.98-21.328 0.70657-0.47905 1.4131-0.9581 2.1411-1.4517 28.915-19.459 60.802-33.972 94.859-41.548 1.1473-0.26555 2.2945-0.53109 3.4766-0.80469 18.51-3.5652 40.968-3.5976 56.699 8.1484z" fill="#FEFDFD"/>
<path transform="translate(1238.9 593.52)" d="m0 0c2.7189 1.9502 3.6387 3.4121 5.0586 6.4766 0.44641 3.2308 0.41953 6.434 0.39844 9.6914 0.0040485 0.98425 0.0080969 1.9685 0.012268 2.9826 0.0060548 3.2965-0.013297 6.5921-0.035706 9.8885-0.0033234 1.1441-0.0066467 2.2882-0.010071 3.4669-0.13087 39.055-2.2066 78.145-4.6652 117.11-0.78185 12.537-1.298 25.084-1.824 37.634-0.62709 14.937-1.3408 29.865-2.2004 44.79-0.37002 6.4647-0.71352 12.923-0.88232 19.397l-0.091553 3.1113c-0.048604 1.8199-0.082342 3.6404-0.096191 5.4609-0.1468 5.2481-1.0418 8.3546-4.6052 12.463-5.4448 4.271-11.389 3.7052-18 3-6.1434-1.6947-11.188-5.9619-15-11-1.0161-3.1361-1.1235-6.019-1.1203-9.3024-6.8733e-4 -0.53705-6.8733e-4 -0.53705-0.0041656-3.2548 0.0035953-1.1732 0.0071906-2.3463 0.010895-3.555-1.4603e-4 -1.2393-2.9205e-4 -2.4786-4.425e-4 -3.7554 5.7714e-4 -3.3943 0.0055912-6.7886 0.012574-10.183 0.0062528-3.5488 0.0068389-7.0975 0.0080254-10.646 0.0031076-6.7183 0.011313-13.437 0.021349-20.155 0.011179-7.6493 0.016676-15.299 0.021695-22.948 0.010452-15.734 0.02804-31.467 0.050324-47.2-1.4857 3.6212-2.9689 7.2435-4.4499 10.867-0.74547 1.8223-1.4928 3.6438-2.2403 5.4653-4.2701 10.452-8.2162 21.002-12.018 31.632-1.0505 2.9362-2.1098 5.8692-3.1704 8.8018-7.0375 19.52-13.902 39.14-19.176 59.223-0.33258 1.2414-0.66516 2.4827-1.0078 3.7617-0.27973 1.088-0.55945 2.1759-0.84766 3.2969-1.4308 3.877-3.3136 7.065-7.0898 8.9531-8.511 1.3394-14.912-1.4464-22-6-10.313-7.8876-16.238-16.328-20.625-28.438-0.44529-1.1994-0.89058-2.3988-1.3494-3.6345-6.9453-18.819-13.456-37.804-20.061-56.744-4.9128-14.088-9.9262-28.14-14.965-42.184-1.103 17.338-1.1877 34.663-1.1853 52.028 8.1263e-5 3.1846-0.0068785 6.3691-0.020508 9.5537-0.071477 16.938 0.032985 33.692 1.7749 50.562 1.2311 12.656 1.2311 12.656-1.4441 16.669-5.9687 4.1781-12.606 7.1074-20.02 6.6875-4.1017-0.97406-6.6328-3.1491-9.1055-6.5-1.5564-3.2353-2.282-6.4927-3-10-0.12117-0.5427-0.12117-0.5427-0.73438-3.2891-1.6968-8.2244-2.7769-16.487-3.7227-24.828-0.064909-0.57169-0.064909-0.57169-0.39339-3.4648-4.0034-35.675-5.5517-71.068-5.5835-106.95-0.0035468-2.8675-0.012201-5.7349-0.021755-8.6024-0.20604-77.025-0.20604-77.025 10.456-99.868 7.1636-6.2293 15.973-5.5131 25-5 7.7028 1.0643 14.076 2.757 19 9 6.5363 11.309 11.016 23.681 15.75 35.812 0.83064 2.1154 1.6617 4.2306 2.4932 6.3457 2.1642 5.512 4.3192 11.028 6.4707 16.544 1.258 3.2252 2.5179 6.4496 3.7783 9.6738 9.7816 25.033 19.407 50.121 28.797 75.303 0.26256 0.70374 0.52511 1.4075 0.79562 2.1325 1.0111 2.7184 1.998 5.436 2.9153 8.1878 0.19521-0.75692 0.39042-1.5138 0.59155-2.2937 11.692-45.116 25.969-89.978 43.596-133.14 0.48727-1.2033 0.97453-2.4065 1.4766-3.6462 7.9348-19.129 7.9348-19.129 16.336-24.916 12.376-4.1254 26.678 0.085931 37.941 5.5234z" fill="#FEFDFD"/>
<path transform="translate(926 574.69)" d="m0 0c0.69867-0.029004 1.3973-0.058008 2.1172-0.087891 3.4647-0.042491 5.662 0.273 8.6797 2.0137 13.747 14.893 17.818 44.205 22.816 63.289 1.0041 3.7936 2.1329 7.5334 3.3086 11.277 2.0583 6.619 3.8134 13.297 5.5119 20.016 0.86882 3.4353 1.7485 6.8678 2.6287 10.3 0.17116 0.66791 0.34232 1.3358 0.51866 2.024 1.2242 4.7617 2.509 9.5018 3.8563 14.23 3.9691 13.997 7.4581 28.132 11.048 42.23 0.46904 1.84 0.9401 3.6795 1.4114 5.5189 3.2083 12.526 6.1623 25.088 8.9246 37.72 1.4503 6.6044 2.9946 13.17 4.679 19.719 2.0949 8.2154 3.9914 16.47 5.8125 24.75 0.26684 1.1826 0.53367 2.3653 0.80859 3.5837 1.38 6.3737 2.3498 12.204 1.8789 18.729-1.6875 1.9375-1.6875 1.9375-4 3-0.70125 0.35063-1.4025 0.70125-2.125 1.0625-9.2556 3.0181-18.32 3.2738-28 3.25-0.65936 0.0080566-0.65936 0.0080566-3.9961 0.048828-13.405 0.0067362-13.405 0.0067362-18.879-3.3613-1.89-2.837-2.9526-5.7701-4-9-0.25765-0.72268-0.5153-1.4454-0.78076-2.1899-0.76511-2.1953-1.4692-4.4018-2.1567-6.6226-0.25088-0.80172-0.50177-1.6034-0.76025-2.4294-7.3022-23.782-7.3022-23.782-7.3022-29.758-2.1865-0.31945-4.3743-0.63003-6.5625-0.9375-1.2182-0.17402-2.4363-0.34805-3.6914-0.52734-13.094-1.588-26.179-1.694-39.347-1.6655-2.9879 0.0054187-5.9757-8.535e-6 -8.9636-0.0063477-1.9173 6.5991e-4 -3.8346 0.0019393-5.752 0.0039062-0.88442-0.0020242-1.7688-0.0040485-2.6801-0.006134-4.4486 0.016853-8.6243 0.2398-13.004 1.1389-0.16081 0.56807-0.32162 1.1361-0.4873 1.7214-0.75274 2.6558-1.5074 5.311-2.2627 7.9661-0.27441 0.96591-0.54882 1.9318-0.83154 2.927-1.4415 5.0505-2.9327 10.073-4.5435 15.073-1.1523 3.6183-2.0863 7.2062-2.832 10.926-0.16419 0.808-0.32839 1.616-0.49756 2.4485-0.31366 1.5837-0.61056 3.1708-0.8877 4.7612-1.0089 5.1211-2.4137 7.8314-6.6577 11.177-10.517 5.749-23.966 6.8641-35.5 3.8125-4.2441-1.5138-7.0411-2.8783-9.5-6.8125-1.0912-8.5235 0.93879-16.859 2.8125-25.125 0.26104-1.2104 0.52207-2.4209 0.79102-3.668 1.4458-6.5612 3.1315-12.881 5.3965-19.207-1.03-0.24363-2.0599-0.48727-3.1211-0.73828-10.024-2.8772-18.278-11.62-23.754-20.199-1.5564-4.2368-1.8416-6.548-1.125-11.062 4.0441-4.3083 9.2442-6.03 14.875-7.1875 0.72308-0.16017 1.4462-0.32033 2.1912-0.48535 7.9037-1.6725 15.899-2.5629 23.934-3.3271 0.059498-0.27481 0.059498-0.27481 0.3606-1.6655 11.988-54.739 30.45-114.57 56.639-164.33 0.53367-1.0312 1.0673-2.0625 1.6172-3.125 7.8638-13.145 26.937-16.992 40.941-20.52 3.4776-0.50633 6.9343-0.61944 10.441-0.66797z" fill="#FEFDFD"/>
<path transform="translate(1014.6 1287.7)" d="m0 0c1.7039-0.0013492 3.4078-0.0032918 5.1117-0.0057983 3.5545-0.0029354 7.1089 0.0012979 10.663 0.010681 4.5541 0.011437 9.1079 0.0047982 13.662-0.0071449 3.5113-0.0072244 7.0225-0.0049288 10.534 2.5558e-4 1.6797 0.0013326 3.3594-2.9773e-4 5.0392-0.0049591 2.3429-0.0050795 4.6854 0.0026629 7.0283 0.013802 0.34574-0.0020242 0.34574-0.0020242 2.0954-0.012268 3.5833 0.031557 6.3029 0.19107 9.2842 2.2711 4.4944 6.2649 7 14.271 7 22h2c0.32613 1.2066 0.65227 2.4131 0.98828 3.6562 0.44121 1.6146 0.88263 3.2292 1.3242 4.8438 0.21334 0.79148 0.42668 1.583 0.64648 2.3984 1.2377 4.5074 2.6551 8.8589 4.3425 13.217 1.0794 2.9126 1.8816 5.8896 2.6985 8.8848 1.2424 4.4453 2.5924 8.7361 4.2891 13.023 0.86279 2.3988 1.5025 4.8232 2.1484 7.2891 1.0058 3.818 2.1756 7.491 3.5625 11.188 1.675 4.4794 3.0001 8.9659 4.2109 13.59 1.1904 4.3905 2.5613 8.7223 3.9219 13.062 0.69296 2.2755 1.3023 4.5389 1.8672 6.8477 0.91011 0.0080869 1.8202 0.016174 2.7579 0.024506 8.5643 0.077843 17.128 0.1651 25.693 0.26302 4.4032 0.05001 8.8064 0.09634 13.21 0.13435 4.2471 0.036793 8.4939 0.083136 12.741 0.13619 1.6227 0.018576 3.2455 0.033672 4.8683 0.04528 2.2677 0.016808 4.535 0.045829 6.8025 0.077808 1.2924 0.013324 2.5848 0.026647 3.9164 0.040375 3.0119 0.27847 3.0119 0.27847 5.0119 2.2785 0.36719 2.9023 0.36719 2.9023 0 6-1.5547 1.8789-1.5547 1.8789-3.875 3.5625-0.90621 0.6716-1.8124 1.3432-2.7461 2.0352-1.1261 0.80103-2.2524 1.6018-3.3789 2.4023-1.4294 1.039-2.8577 2.0794-4.2852 3.1211-3.8725 2.8177-7.7607 5.6128-11.654 8.4014-10.688 7.6639-21.269 15.479-31.861 23.274-5.9546 4.3795-11.923 8.7348-17.949 13.016-7.3469 5.2204-14.591 10.579-21.84 15.934-4.2192 3.1161-8.4566 6.2063-12.703 9.2852-3.2647 2.3743-6.5168 4.7656-9.7695 7.1562-6.5887 4.8425-13.215 9.6322-19.86 14.397-3.0342 2.1824-6.002 4.3518-8.8708 6.7512-2.6279 1.9814-4.6915 2.4148-7.9766 2.2422-4.7607-1.2339-8.4102-4.612-12.23-7.5781-1.5563-1.0923-3.1188-2.1756-4.6875-3.25-7.5484-5.2839-14.938-10.788-22.354-16.255-2.0061-1.4784-4.0133-2.9553-6.0205-4.4321-0.60675-0.44827-1.2135-0.89654-1.8386-1.3584-2.7967-2.0573-5.6-4.0358-8.5325-5.8955-0.84691-0.59684-1.6938-1.1937-2.5664-1.8086v-2c-0.36223-0.12955-0.36223-0.12955-2.1953-0.78516-2.922-1.2657-5.1342-2.7452-7.6797-4.6523-0.96164-0.71414-1.9233-1.4283-2.9141-2.1641-0.51724-0.38704-1.0345-0.77408-1.5674-1.1729-2.9497-2.1995-5.924-4.3655-8.8936-6.5381-3.8527-2.8249-7.7032-5.6526-11.551-8.4844-5.9546-4.3795-11.923-8.7348-17.949-13.016-6.5243-4.6359-12.968-9.3783-19.404-14.136-4.369-3.2293-8.7509-6.4377-13.158-9.6143-0.41379-0.30357-0.41379-0.30357-2.5078-1.8398-1.3778-1.0099-2.7672-2.0043-4.1719-2.9766-2.9259-2.1506-3.9337-3.1488-4.5078-6.8086 0.5-2.8125 0.5-2.8125 2.5-4.8125 2.8221-0.24051 2.8221-0.24051 6.4692-0.22705 0.66353-2.9205e-4 1.3271-5.8411e-4 2.0107-8.8501e-4 2.1969 0.0013952 4.3935 0.016965 6.5904 0.032623 1.5217 0.0037295 3.0434 0.0065767 4.5652 0.0085754 4.0081 0.0076418 8.016 0.027295 12.024 0.049408 4.0887 0.020447 8.1775 0.029591 12.266 0.039673 8.0248 0.02146 16.049 0.055602 24.074 0.097656 0.067635-0.61919 0.067635-0.61919 0.40991-3.7527 0.36735-2.9344 0.84186-5.4788 2.0315-8.2043 1.6758-4.1676 2.606-8.3376 3.4961-12.73 1.3885-6.5543 3.065-12.904 5.125-19.285 0.95766-3.0924 1.7455-6.1921 2.5-9.3398 0.79603-3.3003 1.6507-6.4222 2.9375-9.5625 2.3296-5.7933 3.2915-12.022 4.5-18.125h2c0.0825-1.1756 0.165-2.3512 0.25-3.5625 0.78127-6.9984 2.7978-13.695 4.75-20.438 0.32227-1.1524 0.64453-2.3048 0.97656-3.4922 1.2867-4.2786 2.333-7.6793 5.2109-11.133 9.1714-4.4838 19.45-3.6684 29.395-3.6406z" fill="#014B6C"/>
<path transform="translate(1526 604.63)" d="m0 0c2.3608-0.004379 4.7196-0.040889 7.0801-0.078613 15.5-0.11365 32.778 1.8874 44.789 12.637 5.8291 6.3941 7.8596 13.799 7.4922 22.336-3.8026 36.003-22.344 74.164-44.367 102.6-0.44481 0.57452-0.88961 1.149-1.3479 1.741-3.2445 4.0124-5.542 5.8703-10.652 6.509-15.942-0.60926-32.432-12.636-43.164-23.582-3.5327-3.918-6.2729-7.3156-7.4609-12.543 1.12-5.8241 6.063-9.0459 10.408-12.784 4.9574-4.285 9.6602-8.7574 14.28-13.404 0.66838-0.66451 1.3368-1.329 2.0254-2.0137 4.5086-4.5174 8.7776-9.1876 12.912-14.049 0.25455-0.29854 0.25455-0.29854 1.5427-1.8093 18.272-21.673 18.272-21.673 19.457-34.191-6.0442-0.36065-10.078 0.45093-15.438 3.375-0.64998 0.34672-1.3 0.69344-1.9697 1.0507-14.711 7.9134-28.666 16.781-42.478 26.17-2.8062 1.9073-5.6173 3.807-8.4294 5.7056-28.478 19.259-28.478 19.259-37.061 26.824-0.57887 0.50515-1.1577 1.0103-1.7542 1.5308-22.266 19.579-22.266 19.579-23.121 31.969 1.25 3.375 1.25 3.375 2.8882 4.4785 6.5851 2.8611 13.206 4.394 20.237 5.7715 1.248 0.25411 2.4959 0.50821 3.7817 0.77002 7.0496 1.4186 14.116 2.67 21.218 3.7925 28.192 4.4724 57.35 10.036 76.438 33.375 0.93409 1.3705 1.8289 2.7684 2.6875 4.1875 0.48598 0.7902 0.97195 1.5804 1.4727 2.3945 5.8144 11.321 5.3487 26.675 1.9023 38.73-0.74309 1.9773-1.534 3.9373-2.375 5.875-0.4009 0.99902-0.8018 1.998-1.2148 3.0273-3.7569 8.4613-9.2805 14.554-15.785 20.973-0.62004 0.61875-1.2401 1.2375-1.8789 1.875-6.8821 6.368-15.529 10.06-24.184 13.375-0.31804 0.12311-0.31804 0.12311-1.9275 0.74609-10.726 3.9495-21.071 4.3487-32.383 4.3196-2.5277-0.0031287-5.0542 0.020248-7.5818 0.045654-15.349 0.06068-30.309-1.8924-45.107-6.0488-0.45423-0.12637-0.45423-0.12637-2.7529-0.76587-14.619-4.244-31.248-10.436-41.185-22.547-1.9214-4.6331-2.3844-8.9716-2.375-13.938-0.0012891-0.70641-0.0025781-1.4128-0.0039062-2.1406 0.11143-5.4601 0.99817-8.696 4.3789-12.922 5.1913 0.49565 8.7304 1.6896 13.25 4.25 18.788 10.035 41.763 11.925 62.688 11.938 1.0899 0.012246 2.1798 0.024492 3.3027 0.037109 19.152 0.03414 43.803-4.3295 58.76-17.225 2.1805-3.1425 2.9491-4.9048 3.125-8.6875-1.4175-2.9138-3.0628-3.6152-6.0509-4.6977-6.6262-1.9641-13.24-2.9746-20.113-3.5445-1.7214-0.15447-3.4427-0.30935-5.1641-0.4646-0.88623-0.078139-1.7725-0.15628-2.6855-0.23679-72.457-6.4591-72.457-6.4591-94.111-29.369-2.6018-3.1875-4.8331-6.5051-7-10-0.51176-0.74121-1.0235-1.4824-1.5508-2.2461-6.9054-11.846-4.8378-29.645-1.5117-42.441 8.0751-28.061 25.97-66.796 52.297-81.902 1.4974-0.79736 3.003-1.5795 4.5156-2.3477 0.82363-0.4233 1.6473-0.84659 2.4958-1.2827 30.52-15.38 64.494-25.157 98.76-25.15z" fill="#FEFDFD"/>
<path transform="translate(1084,991)" d="m0 0c2.9424 1.3257 5.0026 2.7599 7.2646 5.0535 0.61454 0.61792 1.2291 1.2358 1.8622 1.8725 0.65422 0.66768 1.3084 1.3354 1.9825 2.0233 0.68564 0.69084 1.3713 1.3817 2.0777 2.0935 2.1924 2.2102 4.3781 4.427 6.5629 6.6448 2.1713 2.1991 4.3442 4.3967 6.5201 6.5913 1.3519 1.364 2.7012 2.7307 4.0472 4.1006 3.7734 3.8127 7.6714 7.3924 11.732 10.896 3.139 2.7752 6.0723 5.7423 9.0131 8.7245 0.31779 0.31969 0.31779 0.31969 1.926 1.9375 2.6806 2.6967 5.355 5.3994 8.03 8.1016 12.843 12.962 12.843 12.962 18.821 18.023 6.487 5.8183 12.479 12.212 18.606 18.404 12.355 12.474 12.355 12.474 16.523 16.002 7.4722 6.335 14.164 13.614 21.05 20.57 12.814 12.932 12.814 12.932 16.981 16.461 7.4647 6.32 14.144 13.594 21.019 20.539 1.9709 1.9891 3.9448 3.9751 5.9189 5.9609 0.58983 0.59812 1.1797 1.1962 1.7874 1.8125 2.9971 3.0143 6.0519 5.901 9.2686 8.6809 3.9026 3.3733 7.5535 6.9408 11.175 10.612 0.6427 0.64649 1.2854 1.293 1.9476 1.9591 2.0265 2.0385 4.0496 4.0803 6.0719 6.123 2.6781 2.7048 5.3595 5.4061 8.043 8.1055 0.60531 0.61361 1.2106 1.2272 1.8343 1.8594 3.1671 3.1853 6.3963 6.0698 9.9353 8.8476 10.473 13.003 8.0812 26.506 7.0117 42.25-0.10514 1.5819-0.21005 3.1639-0.31474 4.7458-0.22045 3.3184-0.44348 6.6367-0.66841 9.9548-0.28026 4.137-0.55445 8.2744-0.82674 12.412-1.4667 22.238-3.2103 44.441-5.2018 66.637-1.32 0.33-2.64 0.66-4 1-4.6891-5.2475-8.2633-11.013-11.938-17-1.3404-2.1645-2.6815-4.3286-4.0234-6.4922-0.33757-0.54511-0.33757-0.54511-2.0459-3.3037-2.9847-4.798-6.0161-9.5657-9.0557-14.329-0.57146-0.8963-1.1429-1.7926-1.7317-2.7161-1.1541-1.8095-2.3084-3.6189-3.4631-5.428-2.9592-4.6374-5.9137-9.2777-8.8677-13.918-0.58129-0.91322-1.1626-1.8264-1.7615-2.7673-5.2343-8.2275-10.444-16.471-15.646-24.719-2.4876-3.9433-4.9778-7.8849-7.4678-11.827-1-1.5833-2-3.1667-3-4.75-0.495-0.78375-0.99-1.5675-1.5-2.375-40.5-64.125-40.5-64.125-42-66.499-1.0016-1.5858-2.0032-3.1716-3.0049-4.7573-2.4762-3.9203-4.9517-7.841-7.4253-11.763-5.3391-8.4631-10.695-16.915-16.07-25.355-5.8663-9.2105-11.707-18.437-17.532-27.673-2.4876-3.9433-4.9778-7.8849-7.4678-11.827-1-1.5833-2-3.1667-3-4.75-0.495-0.78375-0.99-1.5675-1.5-2.375-4.5-7.125-4.5-7.125-5.9995-9.4993-1.0016-1.5858-2.0032-3.1716-3.0049-4.7573-2.4762-3.9203-4.9517-7.841-7.4253-11.763-5.3391-8.4631-10.695-16.915-16.07-25.355-6.3574-9.9849-12.709-19.973-19-30-0.68578-1.088-1.3716-2.1759-2.0781-3.2969-0.55172-0.89203-1.1034-1.7841-1.6719-2.7031-0.44859-0.72187-0.89719-1.4438-1.3594-2.1875-0.89062-1.8125-0.89062-1.8125-0.89062-4.8125z" fill="#014C6C"/>
<path transform="translate(988,991)" d="m0 0c-1.6507 4.7046-4.1364 8.7242-6.75 12.938-0.48171 0.78214-0.96341 1.5643-1.4597 2.3701-6.159 9.9633-12.481 19.824-18.79 29.692-7.1779 11.238-14.323 22.495-21.375 33.812-5.8817 9.4385-11.848 18.82-17.853 28.181-8.4762 13.215-16.836 26.5-25.147 39.819-6.042 9.6827-12.148 19.323-18.285 28.945-3.1681 4.9683-6.3201 9.9466-9.4648 14.93-0.48896 0.77473-0.97792 1.5495-1.4817 2.3477-1.4647 2.3214-2.9291 4.6431-4.3933 6.9648-6.9048 10.949-13.83 21.884-20.784 32.801-5.2675 8.2731-10.507 16.563-15.739 24.859-1.5116 2.3954-3.0251 4.7897-4.5391 7.1836-4.6879 7.414-9.3648 14.834-14 22.281-3.3189 5.3291-6.6994 10.614-10.125 15.875-5.1386 7.8928-10.121 15.879-15.093 23.878-4.8161 7.7276-9.7439 15.376-14.772 22.967-0.50612 0.76917-1.0122 1.5383-1.5337 2.3308-0.44392 0.66943-0.88784 1.3389-1.3452 2.0286-1.0688 1.7957-1.0688 1.7957-2.0688 4.7957-1.6561 0.38219-3.3246 0.71395-5 1-1.5933-1.5933-1.2793-3.3446-1.4331-5.5559-0.070425-0.98068-0.14085-1.9614-0.21341-2.9718-0.072822-1.0801-0.14564-2.1603-0.22067-3.2731-0.079348-1.1227-0.1587-2.2454-0.24045-3.4021-0.26049-3.7029-0.51421-7.4062-0.76736-11.11-0.17714-2.5554-0.35455-5.1107-0.53223-7.666-0.27033-3.8933-0.53994-7.7867-0.80737-11.68-0.55013-8.0048-1.1229-16.007-1.7151-24.009-2.3281-31.663-2.3281-31.663-2.5703-45.457-0.030615-0.89332-0.06123-1.7866-0.092773-2.707-0.0038279-9.7535 4.3877-16.313 11.05-23.148 2.0959-2.0928 4.2239-4.1506 6.3555-6.207 1.0669-1.0503 2.1326-2.1017 3.1973-3.1543 4.1987-4.1275 8.416-8.1807 12.874-12.027 4.1331-3.5932 7.9896-7.4104 11.827-11.315 1.423-1.4357 2.8462-2.8712 4.2695-4.3066 2.214-2.239 4.4263-4.4795 6.6362-6.7224 2.1521-2.1821 4.3102-4.3581 6.4692-6.5334 0.33227-0.339 0.33227-0.339 2.0138-2.0546 0.30735-0.30904 0.30735-0.30904 1.8627-1.8729 0.53991-0.54736 1.0798-1.0947 1.6361-1.6587 1.4015-1.1677 1.4015-1.1677 3.4015-1.1677 0.33-0.99 0.66-1.98 1-3 1.3555-1.332 1.3555-1.332 3.1875-2.8125 4.0108-3.4031 7.7337-7.0212 11.438-10.75 0.59531-0.59861 1.1906-1.1972 1.804-1.814 1.859-1.8726 3.7154-3.7476 5.571-5.6235 2.4553-2.4822 4.9141-4.9608 7.375-7.4375 0.27304-0.27719 0.27304-0.27719 1.6548-1.6799 2.8657-2.8835 5.7953-5.6316 8.8745-8.2869 4.2837-3.7066 8.2716-7.6619 12.252-11.689 0.74657-0.75036 1.4931-1.5007 2.2623-2.2738 2.3629-2.375 4.7226-4.7533 7.0814-7.1324 3.1116-3.1384 6.2266-6.2733 9.3438-9.4062 0.3496-0.35375 0.3496-0.35375 2.1188-2.1439 3.8942-3.9133 7.8981-7.6105 12.078-11.215 3.2943-2.9162 6.3698-6.0419 9.4594-9.172 0.67998-0.68377 1.36-1.3675 2.0605-2.072 2.149-2.161 4.2946-4.3253 6.4395-6.4905 2.8303-2.8572 5.6641-5.7108 8.5-8.5625 0.63357-0.64187 1.2671-1.2837 1.9199-1.9451 3.0935-3.1101 6.2345-6.1028 9.5554-8.97 4.1614-3.594 8.0474-7.4177 11.919-11.319 0.35702-0.35772 0.35702-0.35772 2.1637-2.168 2.2538-2.2593 4.5041-4.5221 6.7542-6.7851 1.5278-1.5328 3.0558-3.0653 4.584-4.5977 3.3501-3.3598 6.6979-6.7219 10.044-10.086 0.51471-0.51693 1.0294-1.0339 1.5597-1.5665 0.50001-0.56221 1-1.1244 1.5152-1.7037 1.4848-1.2963 1.4848-1.2963 4.4848-1.2963z" fill="#014C6D"/>
<path transform="translate(1022.6 1183.7)" d="m0 0c0.91189-0.0066568 1.8238-0.013314 2.7633-0.020172 1.9204-0.01009 3.8409-0.014818 5.7614-0.014496 2.9344-0.0043859 5.8674-0.040779 8.8015-0.078613 1.8704-0.0058664 3.7409-0.009837 5.6113-0.011719 0.87407-0.014371 1.7481-0.028742 2.6487-0.043549 4.0216 0.030136 6.2759 0.18745 9.8061 2.2591 2.0518 2.292 2.876 3.6854 3.635 6.6321 0.11436 0.42334 0.11436 0.42334 0.69312 2.5657 0.22502 0.90259 0.45004 1.8052 0.68188 2.7351 0.51102 1.9142 1.0228 3.8283 1.5352 5.7422 0.24766 0.94843 0.49532 1.8969 0.75049 2.874 0.97817 3.692 2.0565 7.3502 3.1519 11.009 0.40164 1.3579 0.80266 2.716 1.2031 4.0742 0.10603 0.35925 0.10603 0.35925 0.64258 2.1772 1.4765 5.0179 2.9398 10.04 4.4043 15.061 0.29769 1.0201 0.59539 2.0401 0.9021 3.0911 0.55798 1.9135 1.1148 3.8274 1.6702 5.7417 0.45697 1.5694 0.9183 3.1376 1.3867 4.7036 1.0076 3.4017 1.5693 6.2774 1.3535 9.8386-4.4057 2.1871-8.5056 2.2901-13.323 2.2747-0.82496 0.0051109-1.6499 0.010222-2.4999 0.015488-2.718 0.013864-5.4358 0.012942-8.1539 0.010635-1.8914 0.0038874-3.7828 0.0082222-5.6742 0.012985-3.9592 0.0074545-7.9184 0.0071756-11.878 0.0019073-5.079-0.0058069-10.158 0.011169-15.236 0.034345-3.9033 0.014711-7.8065 0.015613-11.71 0.01249-1.8731 5.1411e-4 -3.7463 0.0057687-5.6194 0.015812-2.6143 0.012302-5.2278 0.0056118-7.8421-0.0060062-0.77617 0.0076437-1.5523 0.015287-2.352 0.023163-5.2179-0.051397-5.2179-0.051397-7.7063-1.7846-2.7214-4.3595-0.075209-11.607 1.01-16.33 0.40357-1.5958 0.8153-3.1895 1.2344-4.7812 0.2218-0.86528 0.4436-1.7306 0.67212-2.6221 1.6232-6.2816 3.3475-12.534 5.1272-18.773 1.2612-4.4662 2.4112-8.9476 3.4937-13.461 0.26305-1.0902 0.5261-2.1804 0.79712-3.3037 0.51496-2.1508 1.021-4.3038 1.5171-6.459 0.23533-0.98065 0.47067-1.9613 0.71313-2.9717 0.10192-0.4376 0.10192-0.4376 0.61768-2.6521 0.92871-2.5826 1.6079-3.631 3.812-5.2581 5.1467-2.3201 10.059-2.3218 15.598-2.3359z" fill="#024C6D"/>
<path transform="translate(906,670)" d="m0 0h2c0.18474 0.88929 0.36948 1.7786 0.55981 2.6948 0.91465 4.394 1.8328 8.7873 2.7527 13.18 0.17169 0.82047 0.34337 1.6409 0.52026 2.4863 2.3192 11.066 4.7008 22.116 7.1477 33.154 0.25059 1.1315 0.50117 2.263 0.75935 3.4289 1.2451 5.6174 2.4958 11.233 3.7536 16.848 0.46065 2.0718 0.92119 4.1435 1.3816 6.2153 0.21525 0.95256 0.4305 1.9051 0.65227 2.8865 0.097337 0.43968 0.097337 0.43968 0.58992 2.6647 0.17128 0.76475 0.34257 1.5295 0.51904 2.3174 0.36377 2.1235 0.36377 2.1235 0.36377 6.1235-0.46148-0.032831-0.46148-0.032831-2.7969-0.19897-11.065-0.74417-22.118-1.1043-33.203-1.3635-1.7578-0.043345-3.5156-0.086963-5.2734-0.13086-4.2421-0.10535-8.4843-0.20705-12.727-0.30664 0.67613-5.051 2.071-9.6281 3.7031-14.43 0.27419-0.81541 0.54839-1.6308 0.83089-2.4709 0.89856-2.6605 1.8061-5.3177 2.716-7.9744 0.30969-0.90784 0.61937-1.8157 0.93845-2.751 4.2948-12.554 8.8409-24.972 13.874-37.249 0.26486-0.64628 0.52972-1.2926 0.80261-1.9584 3.2109-7.7997 6.5883-15.514 10.135-23.167z" fill="#970202"/>
<path transform="translate(1025.9 1112.6)" d="m0 0c0.65548-4.985e-4 1.311-9.9701e-4 1.9863-0.0015106 1.3801 0.0023331 2.7602 0.012017 4.1402 0.02861 2.1158 0.023682 4.2303 0.020545 6.3462 0.013916 10.365 0.04304 10.365 0.04304 12.645 2.3223 0.82555 2.9343 1.5621 5.8457 2.25 8.8125 2.0038 8.3581 4.242 16.617 6.6943 24.855 1.2467 4.2476 2.3875 8.5047 3.3564 12.825 0.18345 0.81582 0.3669 1.6316 0.55591 2.4722 0.047292 0.67176 0.094585 1.3435 0.14331 2.0356-2 2-2 2-4.3598 2.2472-0.98738-0.001425-1.9748-0.00285-2.9921-0.0043182-1.1178 0.0030766-2.2356 0.0061533-3.3872 0.0093231-1.2115-0.0071855-2.4229-0.014371-3.6711-0.021774-1.2378-4.5822e-4 -2.4756-9.1644e-4 -3.7508-0.0013885-3.2926-0.0038016-6.585-0.016822-9.8775-0.033463-3.355-0.013456-6.71-0.010276-10.065-0.010071-2.5397-0.0049152-5.0794-0.010744-7.6191-0.017578-1.2135-0.0011128-2.427-0.0022256-3.6773-0.0033722-0.55732-0.0031899-0.55732-0.0031899-3.3777-0.019333-0.98658-0.0038118-1.9732-0.0076236-2.9896-0.011551-2.2328-0.13371-2.2328-0.13371-3.2328-1.1337-0.47827-6.8473 0.9733-12.729 2.75-19.312 2.2543-8.5797 4.2942-17.137 5.7803-25.886 1.005-5.3178 1.005-5.3178 3.1055-7.5042 3.1975-1.7546 5.6096-1.6695 9.2471-1.6606z" fill="#014C6D"/>
<path transform="translate(1332,586)" d="m0 0c4.3529 2.77 7.4227 6.0535 9 11 2.7288 16.15-5.2695 30.966-14.214 43.91-6.5976 9.1762-13.547 16.971-23.786 22.09-3.4896 0.30344-5.3751 0.3947-8.375-1.5-0.53625-0.495-1.0725-0.99-1.625-1.5 0.43957-5.5538 2.4863-8.6504 5.75-12.938 0.43055-0.58201 0.86109-1.164 1.3047-1.7637 0.86873-1.1743 1.7402-2.3466 2.6145-3.5168 6.9203-9.2664 6.9203-9.2664 7.3308-13.782-0.72187-0.0825-1.4437-0.165-2.1875-0.25-4.7351-1.2627-7.0764-3.557-9.625-7.6875-3.2294-8.5995-1.6537-18.795 1.8125-27.062 2.3414-4.6829 4.8799-7.2067 9.5938-9.3086 7.7152-2.2169 15.311-1.1766 22.406 2.3086z" fill="#FCFAFA"/>
<path transform="translate(1034.1 1063.9)" d="m0 0c0.7541 0.0045117 1.5082 0.0090234 2.2852 0.013672 1.8633 0.011793 3.7266 0.029729 5.5898 0.048828 2.0968 6.1092 3.6534 12.293 5.1875 18.562 0.28553 1.1234 0.57105 2.2468 0.86523 3.4043 0.2649 1.0847 0.5298 2.1695 0.80273 3.2871 0.24387 0.98299 0.48775 1.966 0.73901 2.9788 0.42515 2.9013 0.15703 4.9523-0.59448 7.7673-4.2541 0.024656-8.5083 0.042839-12.762 0.054932-1.4482 0.0050394-2.8965 0.011871-4.3447 0.020508-2.0776 0.012083-4.1551 0.017793-6.2327 0.022217-1.2516 0.0052368-2.5032 0.010474-3.7927 0.015869-2.8674-0.11353-2.8674-0.11353-3.8674-1.1135 0.56556-7.4375 1.9851-14.692 3.4375-22 0.21721-1.1434 0.43441-2.2868 0.6582-3.4648 0.21463-1.0841 0.42926-2.1682 0.65039-3.2852 0.19263-0.98484 0.38527-1.9697 0.58374-2.9844 0.22115-0.74766 0.44231-1.4953 0.67017-2.2656 3.1882-1.5941 6.629-1.1017 10.125-1.0625z" fill="#044D6E"/>
</svg>
